<?xml version="1.0" encoding="utf-8"?>
<!-- Generator: Adobe Illustrator 19.2.0, SVG Export Plug-In . SVG Version: 6.00 Build 0)  -->
<svg version="1.1" xmlns="http://www.w3.org/2000/svg" xmlns:xlink="http://www.w3.org/1999/xlink" x="0px" y="0px"
	 viewBox="0 0 60 60" style="enable-background:new 0 0 60 60;" xml:space="preserve">
<style type="text/css">
	.st0{fill:#4EB543;}
</style>
<g id="Слой_3">
	<rect x="1.4" y="12.1" class="st0" width="52.6" height="10.4"/>
</g>
<g id="Capa_1">
	<g>
		<path d="M59,10.5H1c-0.6,0-1,0.4-1,1v24c0,0.6,0.4,1,1,1h3h52h3c0.6,0,1-0.4,1-1v-24C60,10.9,59.6,10.5,59,10.5z M5,34.5v-4h50v4
			H5z M58,34.5h-1v-5c0-0.6-0.4-1-1-1H4c-0.6,0-1,0.4-1,1v5H2v-22h56V34.5z"/>
		<path d="M32,31.5h-4c-0.6,0-1,0.4-1,1c0,0.6,0.4,1,1,1h4c0.6,0,1-0.4,1-1S32.6,31.5,32,31.5z"/>
		<circle cx="36" cy="16.5" r="1"/>
		<circle cx="39" cy="16.5" r="1"/>
		<circle cx="42" cy="16.5" r="1"/>
		<circle cx="45" cy="16.5" r="1"/>
		<circle cx="48" cy="16.5" r="1"/>
		<circle cx="51" cy="16.5" r="1"/>
		<circle cx="54" cy="16.5" r="1"/>
		<circle cx="36" cy="20.5" r="1"/>
		<circle cx="39" cy="20.5" r="1"/>
		<circle cx="42" cy="20.5" r="1"/>
		<circle cx="45" cy="20.5" r="1"/>
		<circle cx="48" cy="20.5" r="1"/>
		<circle cx="51" cy="20.5" r="1"/>
		<circle cx="54" cy="20.5" r="1"/>
		<circle cx="36" cy="24.5" r="1"/>
		<circle cx="39" cy="24.5" r="1"/>
		<circle cx="42" cy="24.5" r="1"/>
		<circle cx="45" cy="24.5" r="1"/>
		<circle cx="48" cy="24.5" r="1"/>
		<circle cx="51" cy="24.5" r="1"/>
		<circle cx="54" cy="24.5" r="1"/>
		<circle cx="6" cy="16.5" r="1"/>
		<circle cx="9" cy="16.5" r="1"/>
		<circle cx="12" cy="16.5" r="1"/>
		<circle cx="15" cy="16.5" r="1"/>
		<circle cx="18" cy="16.5" r="1"/>
		<circle cx="21" cy="16.5" r="1"/>
		<circle cx="24" cy="16.5" r="1"/>
		<circle cx="6" cy="20.5" r="1"/>
		<circle cx="9" cy="20.5" r="1"/>
		<circle cx="12" cy="20.5" r="1"/>
		<circle cx="15" cy="20.5" r="1"/>
		<circle cx="18" cy="20.5" r="1"/>
		<circle cx="21" cy="20.5" r="1"/>
		<circle cx="24" cy="20.5" r="1"/>
		<circle cx="6" cy="24.5" r="1"/>
		<circle cx="9" cy="24.5" r="1"/>
		<circle cx="12" cy="24.5" r="1"/>
		<circle cx="15" cy="24.5" r="1"/>
		<circle cx="18" cy="24.5" r="1"/>
		<circle cx="21" cy="24.5" r="1"/>
		<circle cx="24" cy="24.5" r="1"/>
		<path d="M8,39.5c-0.6,0-1,0.4-1,1v2c0,0.6,0.4,1,1,1s1-0.4,1-1v-2C9,39.9,8.6,39.5,8,39.5z"/>
		<path class="st0" d="M8,45.5c-0.6,0-1,0.4-1,1v2c0,0.6,0.4,1,1,1s1-0.4,1-1v-2C9,45.9,8.6,45.5,8,45.5z"/>
		<path class="st0" d="M12,39.5c-0.6,0-1,0.4-1,1v2c0,0.6,0.4,1,1,1s1-0.4,1-1v-2C13,39.9,12.6,39.5,12,39.5z"/>
		<path d="M12,45.5c-0.6,0-1,0.4-1,1v2c0,0.6,0.4,1,1,1s1-0.4,1-1v-2C13,45.9,12.6,45.5,12,45.5z"/>
		<path d="M16,39.5c-0.6,0-1,0.4-1,1v2c0,0.6,0.4,1,1,1c0.6,0,1-0.4,1-1v-2C17,39.9,16.6,39.5,16,39.5z"/>
		<path class="st0" d="M16,45.5c-0.6,0-1,0.4-1,1v2c0,0.6,0.4,1,1,1c0.6,0,1-0.4,1-1v-2C17,45.9,16.6,45.5,16,45.5z"/>
		<path class="st0" d="M44,39.5c-0.6,0-1,0.4-1,1v2c0,0.6,0.4,1,1,1s1-0.4,1-1v-2C45,39.9,44.6,39.5,44,39.5z"/>
		<path d="M44,45.5c-0.6,0-1,0.4-1,1v2c0,0.6,0.4,1,1,1s1-0.4,1-1v-2C45,45.9,44.6,45.5,44,45.5z"/>
		<path d="M48,39.5c-0.6,0-1,0.4-1,1v2c0,0.6,0.4,1,1,1s1-0.4,1-1v-2C49,39.9,48.6,39.5,48,39.5z"/>
		<path class="st0" d="M48,45.5c-0.6,0-1,0.4-1,1v2c0,0.6,0.4,1,1,1s1-0.4,1-1v-2C49,45.9,48.6,45.5,48,45.5z"/>
		<path class="st0" d="M52,39.5c-0.6,0-1,0.4-1,1v2c0,0.6,0.4,1,1,1s1-0.4,1-1v-2C53,39.9,52.6,39.5,52,39.5z"/>
		<path d="M52,45.5c-0.6,0-1,0.4-1,1v2c0,0.6,0.4,1,1,1s1-0.4,1-1v-2C53,45.9,52.6,45.5,52,45.5z"/>
	</g>
</g>
</svg>
