<?xml version="1.0" encoding="utf-8"?>
<!-- Generator: Adobe Illustrator 19.2.0, SVG Export Plug-In . SVG Version: 6.00 Build 0)  -->
<svg version="1.1" id="Слой_1" xmlns="http://www.w3.org/2000/svg" xmlns:xlink="http://www.w3.org/1999/xlink" x="0px" y="0px"
	 viewBox="0 0 512 512" style="enable-background:new 0 0 512 512;" xml:space="preserve">
<style type="text/css">
	.st0{fill:#4EB543;}
</style>
<g id="Слой_3">
	<path class="st0" d="M64.3,379.9c-13.2-7.5-18.8-22.4-14.2-36.8c1.3-4-2.4-6.5-5.6-6.1c-1.5-4.1-8.3-5.1-9.4,0
		c-1.8,0.6-3.1,1.8-4.2,3.3c-1.6-0.1-3.2,0.5-4.4,1.7c-2.5-1-5.6-0.2-6.4,3.2c-0.3,1.2-0.5,2.4-0.8,3.6c0,0.2-0.1,0.3-0.1,0.5
		c-0.7,0.4-1.2,1-1.5,1.7c-2.7,6.1-4.2,12.4-4.2,19.1c0,1.6,0.6,2.8,1.6,3.7c-0.1,8.4,2.2,16.1,10.2,20.9c1.6,1,3.2,0.9,4.5,0.3
		c0.3,0,0.6,0,0.9,0c0.6,0.7,1.5,1.3,2.4,1.5c0.7,0.1,1.3,0.2,2,0.4c1.2,0.2,2.4,0.2,3.6-0.3c1,1.2,2,2.4,3,3.5
		c2.4,2.9,7.5,1.3,8.4-2.2c0.3-1.4,0.5-2.7,0.4-4c0.9,0.5,1.9,1.1,2.9,1.5c3.9,1.8,9.2-1.8,7.2-6.1
		C65.5,390.5,69.4,382.8,64.3,379.9z"/>
	<path class="st0" d="M270.9,430.6c-13.2-7.5-18.8-22.4-14.2-36.8c1.3-4-2.4-6.5-5.6-6.1c-1.5-4.1-8.3-5.1-9.4,0
		c-1.8,0.6-3.1,1.8-4.2,3.3c-1.6-0.1-3.2,0.5-4.4,1.7c-2.5-1-5.6-0.2-6.4,3.2c-0.3,1.2-0.5,2.4-0.8,3.6c-0.1,0.3-0.1,0.6-0.2,0.9
		c-1.8-0.4-3.7,0.3-4.7,2.5c-3.1,6.9-4.5,14.1-3.9,21.6c0.2,2.9,2.5,4.5,4.7,4.7c0.8,6.5,3.5,12.2,9.9,16c1.6,1,3.2,0.9,4.5,0.3
		c1.1,0.1,2.2-0.2,3.1-0.8c1.4,0.7,2.8,1.3,4.3,1.8c0.4,0.1,0.8,0.2,1.2,0.2c1.1,1.3,2.2,2.6,3.3,3.9c2.4,2.9,7.5,1.3,8.4-2.2
		c0.3-1.4,0.5-2.7,0.4-4c0.9,0.5,1.9,1.1,2.9,1.5c3.9,1.8,9.2-1.8,7.2-6.1C272.1,441.2,276.1,433.6,270.9,430.6z"/>
	<path class="st0" d="M483.4,388.5c0.3-1,0.3-1.8,0.1-2.6c-0.5,0.1-1,0.1-1.6,0.1c-9.2-0.1-19.5,3.5-25.2,11
		c-6.7,8.8-3.2,18.8,3.6,27.3c0.8,1,1.5,2.1,1.9,3.3c4.9,2.7,10.6,4.3,16.2,4.2c5.7-1.6,11.2-3.8,15.1-8.5c0.1-0.1,0.3-0.3,0.4-0.4
		C483.4,414.8,479.3,401.5,483.4,388.5z"/>
	<path class="st0" d="M471.9,346.5c-0.1-27.7-0.1-47-0.1-70.9c0,0,0-1.8,0-2.8c0,0,0-1.2,0-2c0-2-2.7-3.6-5.2-4.3
		c-0.4-0.1-0.9-0.2-1.4-0.4c-0.4-0.3-0.8-0.6-1.3-0.8c-12.1-5.6-25.3-8.8-37.9-12.7c-6.4-2-12.9-4.1-19.4-6.1
		c-0.1-0.1-0.3-0.2-0.4-0.3c-5.8-1.4-11.7-3-17.4-4.5c0,0,0,0-0.1,0c-0.4,0.8-0.9,1.5-1.3,2.3c0,9.1,0.4,18.2-0.4,27.3
		c0,3.6,0.1,7.2,0.2,10.8c0.3,8.1,1.5,16,2.8,24c-2.2,19.2-1.8,38.4-1.2,57.7c0,1.3,0.4,2.3,1,3.1c-0.5,5.5-0.9,11.1-1,16.6
		c-0.5,26.4-0.1,52.8-0.2,79.2c0,0.5,0.1,1,0.2,1.4c-0.4,0-0.7,0-1.1,0c-6.4,0.2-6.4,10.2,0,10c11.3-0.3,22.5-0.2,33.8,0.2
		c0.1-0.5,0.1-0.9,0.2-1.4c0.2-0.7,0.4-1.4,0.6-2.1c5.1,0.2,10.3-3,10.1-9.6c-0.5-17,0.4-33.9,2-50.8c0.3-3.2,0.6-6.4,0.9-9.6
		c0.1-0.5,0.2-1,0.3-1.5c3.8-18.6,13.2-38.6,32.9-44.4C472.6,353.8,471.9,350.6,471.9,346.5z"/>
	<path class="st0" d="M242.5,49.7c-4.3-2.6-9.6-3-14.4-1.9c-5.9-4.1-12.4-7.7-18.5-11.2c-7.8-4.5-14.8-4.5-23.1-1.4
		c-8.4,3.1-16.5,6.7-24.4,10.9c-7.8,4.1-11.4,8.3-12.4,17.2c-2.4,20-4.2,40.7,2.5,60.1c0.1,0.3,0.3,0.6,0.4,0.9
		c-0.1,0.3-0.1,0.6-0.2,1c-0.7,0.6-1.2,1.3-1.4,2.3c-0.3,1.3-0.6,2.6-0.8,3.8c-0.2,0.2-0.3,0.3-0.5,0.4c-1.3,0-2.5,0.4-3.5,1.7
		c-0.2,0.2-0.5,0.5-0.7,0.7c-1.5,0.9-2.9,1.9-4.3,3c-1.3,0.2-2.6,0.9-3.3,2.3c-0.1,0.3-0.3,0.5-0.4,0.7c-0.6,0.5-1.2,1.1-1.8,1.7
		c-0.5,0-0.9,0.1-1.3,0.1c-1.8-1.1-4.3-1-6.1,1c-1.8,0.5-3.5,1.1-5.2,2c-1.4,0.7-2.1,1.8-2.4,3c-2.2,0.5-4,2.4-3.7,5.6
		c-0.2,15.5-0.4,30.7-0.6,46.2c-0.1,0.6-0.1,1.1-0.1,1.6c-0.3,0.4-0.6,0.8-0.8,1.2c-0.8,1.2-0.9,2.5-0.7,3.5
		c-2.8,2.7-1.7,8.8,3.3,8.8c6.3,0,13.8,6,17.4,10.8c3.9,5.2,5.5,11.8,7.1,17.9c0.8,3.1,3.7,4,6.1,3.3c-6.2,13.5-0.9,29,1,43.2
		c2.2,16.9,2.5,34.2,0.9,51.2c-1.5,16.7-6,32.7-4,49.5c0.5,4.5,1.3,9.1,2.1,13.6c-3.8,14.5-4.1,30,1.5,43.9
		c-8.8,2.3-11.2,16.8-0.4,19.2c9.5,2.2,19.1,4.7,28.9,4.7c2.5,0,4.6-0.8,6.1-2c-1.1-1.3-1.8-3.1-2-5.2c5.6-0.2,9.1-4.7,9.6-10
		c1.5-17,2.1-34.2,7-50.6c3.2-10.6,7.6-20.9,12.3-31c4.2-5.5,8.7-10.8,13.6-15.7c3.2-3.2,3.1-9.9,3.1-11.2c0-0.2,0-0.3,0-0.5
		l0.2-5.3c0.3-68.7,0.6-137.3,0.9-206c0-1.3,0.4-2.5,1.2-3.5l0,0c2.4-3.1,5.5-4.4,8.4-6.7c3.3-2.7,3.9-6.8,4.7-10.7
		c0.9-4.5,1.5-9,1.8-13.6c0.7-9.1,0.2-18.3-1.4-27.3c3.7-1.5,6-4.9,6.3-9.2C250.9,58.2,247.3,52.6,242.5,49.7z"/>
</g>
<g id="Layer_1">
	<g>
		<g>
			<g>
				<path d="M324.3,332.8c0-4.7-3.8-8.5-8.5-8.5s-8.5,3.8-8.5,8.5v17.1c0,4.7,3.8,8.5,8.5,8.5s8.5-3.8,8.5-8.5V332.8z"/>
				<path d="M315.7,426.7c-4.7,0-8.5,3.8-8.5,8.5v34.1c0,4.7,3.8,8.5,8.5,8.5s8.5-3.8,8.5-8.5v-34.1
					C324.3,430.5,320.4,426.7,315.7,426.7z"/>
				<path d="M358.4,230.4c0-4.7-3.8-8.5-8.5-8.5s-8.5,3.8-8.5,8.5v17.1c0,4.7,3.8,8.5,8.5,8.5s8.5-3.8,8.5-8.5V230.4z"/>
				<path d="M324.3,281.6c0-4.7-3.8-8.5-8.5-8.5s-8.5,3.8-8.5,8.5v17.1c0,4.7,3.8,8.5,8.5,8.5s8.5-3.8,8.5-8.5V281.6z"/>
				<path d="M324.3,384c0-4.7-3.8-8.5-8.5-8.5s-8.5,3.8-8.5,8.5v17.1c0,4.7,3.8,8.5,8.5,8.5s8.5-3.8,8.5-8.5V384L324.3,384z"/>
				<path d="M358.4,281.6c0-4.7-3.8-8.5-8.5-8.5s-8.5,3.8-8.5,8.5v17.1c0,4.7,3.8,8.5,8.5,8.5s8.5-3.8,8.5-8.5V281.6z"/>
				<path d="M290.1,230.4c0-4.7-3.8-8.5-8.5-8.5s-8.5,3.8-8.5,8.5v17.1c0,4.7,3.8,8.5,8.5,8.5s8.5-3.8,8.5-8.5V230.4z"/>
				<path d="M324.3,230.4c0-4.7-3.8-8.5-8.5-8.5s-8.5,3.8-8.5,8.5v17.1c0,4.7,3.8,8.5,8.5,8.5s8.5-3.8,8.5-8.5V230.4z"/>
				<path d="M358.4,145.1V128c0-4.7-3.8-8.5-8.5-8.5s-8.5,3.8-8.5,8.5v17.1c0,4.7,3.8,8.5,8.5,8.5S358.4,149.8,358.4,145.1z"/>
				<path d="M290.1,281.6c0-4.7-3.8-8.5-8.5-8.5s-8.5,3.8-8.5,8.5v17.1c0,4.7,3.8,8.5,8.5,8.5s8.5-3.8,8.5-8.5V281.6z"/>
				<path d="M392.5,128c0-4.7-3.8-8.5-8.5-8.5s-8.5,3.8-8.5,8.5v17.1c0,4.7,3.8,8.5,8.5,8.5s8.5-3.8,8.5-8.5V128z"/>
				<path d="M281.6,324.3c-4.7,0-8.5,3.8-8.5,8.5v17.1c0,4.7,3.8,8.5,8.5,8.5s8.5-3.8,8.5-8.5v-17.1
					C290.1,328.1,286.3,324.3,281.6,324.3z"/>
				<path d="M426.7,384c0-4.7-3.8-8.5-8.5-8.5s-8.5,3.8-8.5,8.5v17.1c0,4.7,3.8,8.5,8.5,8.5s8.5-3.8,8.5-8.5V384L426.7,384z"/>
				<path d="M418.1,426.7c-4.7,0-8.5,3.8-8.5,8.5v34.1c0,4.7,3.8,8.5,8.5,8.5s8.5-3.8,8.5-8.5v-34.1
					C426.7,430.5,422.8,426.7,418.1,426.7z"/>
				<path d="M452.3,324.3c-4.7,0-8.5,3.8-8.5,8.5v17.1c0,4.7,3.8,8.5,8.5,8.5s8.5-3.8,8.5-8.5v-17.1
					C460.8,328.1,457,324.3,452.3,324.3z"/>
				<path d="M315.7,153.6c4.7,0,8.5-3.8,8.5-8.5v-36l85.3-21.3v142.7c0,3.6,2.2,6.7,5.5,8l62.7,23.5v88c0,4.7,3.8,8.5,8.5,8.5
					s8.5-3.8,8.5-8.5v-94c0-3.6-2.2-6.7-5.5-8l-62.7-23.5V59.7c0-4.7-3.8-8.5-8.5-8.5s-8.5,3.8-8.5,8.5v10.4l-95.9,24
					c-3.8,0.9-6.5,4.4-6.5,8.3v42.7C307.2,149.8,311,153.6,315.7,153.6z"/>
				<path d="M460.8,281.6c0-4.7-3.8-8.5-8.5-8.5s-8.5,3.8-8.5,8.5v17.1c0,4.7,3.8,8.5,8.5,8.5s8.5-3.8,8.5-8.5V281.6z"/>
				<path d="M426.7,281.6c0-4.7-3.8-8.5-8.5-8.5s-8.5,3.8-8.5,8.5v17.1c0,4.7,3.8,8.5,8.5,8.5s8.5-3.8,8.5-8.5V281.6z"/>
				<path d="M358.4,384c0-4.7-3.8-8.5-8.5-8.5s-8.5,3.8-8.5,8.5v17.1c0,4.7,3.8,8.5,8.5,8.5s8.5-3.8,8.5-8.5V384z"/>
				<path d="M426.7,332.8c0-4.7-3.8-8.5-8.5-8.5s-8.5,3.8-8.5,8.5v17.1c0,4.7,3.8,8.5,8.5,8.5s8.5-3.8,8.5-8.5V332.8z"/>
				<path d="M349.9,426.7c-4.7,0-8.5,3.8-8.5,8.5v34.1c0,4.7,3.8,8.5,8.5,8.5s8.5-3.8,8.5-8.5v-34.1
					C358.4,430.5,354.6,426.7,349.9,426.7z"/>
				<path d="M358.4,332.8c0-4.7-3.8-8.5-8.5-8.5s-8.5,3.8-8.5,8.5v17.1c0,4.7,3.8,8.5,8.5,8.5s8.5-3.8,8.5-8.5V332.8z"/>
				<path d="M384,477.9c4.7,0,8.5-3.8,8.5-8.5V196.3c0-3.9-2.7-7.3-6.5-8.3l-136.5-34.1c-2.5-0.6-5.3-0.1-7.3,1.6
					c-2.1,1.6-3.3,4.1-3.3,6.7v187.7c0,4.7,3.8,8.5,8.5,8.5s8.5-3.8,8.5-8.5V173.1L375.4,203v266.4C375.5,474,379.3,477.9,384,477.9
					z"/>
				<path d="M187.7,179.2c0-4.7-3.8-8.5-8.5-8.5s-8.5,3.8-8.5,8.5v17.1c0,4.7,3.8,8.5,8.5,8.5s8.5-3.8,8.5-8.5V179.2z"/>
				<path d="M187.7,128c0-4.7-3.8-8.5-8.5-8.5s-8.5,3.8-8.5,8.5v17.1c0,4.7,3.8,8.5,8.5,8.5s8.5-3.8,8.5-8.5V128z"/>
				<path d="M119.5,384c0-4.7-3.8-8.5-8.5-8.5s-8.5,3.8-8.5,8.5v17.1c0,4.7,3.8,8.5,8.5,8.5s8.5-3.8,8.5-8.5V384L119.5,384z"/>
				<path d="M42.7,307.2c4.7,0,8.5-3.8,8.5-8.5V256h85.3v213.3c0,4.7,3.8,8.5,8.5,8.5s8.5-3.8,8.5-8.5V247.5c0-4.7-3.8-8.5-8.5-8.5
					H42.7c-4.7,0-8.5,3.8-8.5,8.5v51.2C34.1,303.4,38,307.2,42.7,307.2z"/>
				<path d="M136.5,179.2v17.1c0,4.7,3.8,8.5,8.5,8.5s8.5-3.8,8.5-8.5v-17.1c0-4.7-3.8-8.5-8.5-8.5
					C140.4,170.7,136.5,174.5,136.5,179.2z"/>
				<path d="M187.7,76.8c0-4.7-3.8-8.5-8.5-8.5s-8.5,3.8-8.5,8.5v17.1c0,4.7,3.8,8.5,8.5,8.5s8.5-3.8,8.5-8.5V76.8z"/>
				<path d="M110.9,426.7c-4.7,0-8.5,3.8-8.5,8.5v34.1c0,4.7,3.8,8.5,8.5,8.5s8.5-3.8,8.5-8.5v-34.1
					C119.5,430.5,115.6,426.7,110.9,426.7z"/>
				<path d="M503.5,494.9h-17.1v-52.4c14.7-3.8,25.6-17.1,25.6-32.9c0-18.8-15.3-34.1-34.1-34.1s-34.1,15.3-34.1,34.1
					c0,15.9,10.9,29.1,25.6,32.9v52.4H256v-35c19.4-4,34.1-21.2,34.1-41.8c0-23.5-19.1-42.7-42.7-42.7c-23.5,0-42.7,19.1-42.7,42.7
					c0,20.6,14.7,37.8,34.1,41.8v35H51.2v-86.2c19.4-4,34.1-21.2,34.1-41.8c0-23.5-19.1-42.7-42.7-42.7C19.1,324.3,0,343.4,0,366.9
					c0,20.6,14.7,37.8,34.1,41.8v86.2H8.5c-4.7,0-8.5,3.8-8.5,8.5s3.8,8.5,8.5,8.5h494.9c4.7,0,8.5-3.8,8.5-8.5
					S508.2,494.9,503.5,494.9z M17.1,366.9c0-14.1,11.5-25.6,25.6-25.6s25.6,11.5,25.6,25.6s-11.5,25.6-25.6,25.6
					S17.1,381,17.1,366.9z M221.9,418.1c0-14.1,11.5-25.6,25.6-25.6s25.6,11.5,25.6,25.6s-11.5,25.6-25.6,25.6
					S221.9,432.2,221.9,418.1z M460.8,409.6c0-9.4,7.7-17.1,17.1-17.1s17.1,7.7,17.1,17.1s-7.7,17.1-17.1,17.1
					S460.8,419,460.8,409.6z"/>
				<path d="M68.3,435.2v34.1c0,4.7,3.8,8.5,8.5,8.5s8.5-3.8,8.5-8.5v-34.1c0-4.7-3.8-8.5-8.5-8.5S68.3,430.5,68.3,435.2z"/>
				<path d="M119.5,281.6c0-4.7-3.8-8.5-8.5-8.5s-8.5,3.8-8.5,8.5v17.1c0,4.7,3.8,8.5,8.5,8.5s8.5-3.8,8.5-8.5V281.6z"/>
				<path d="M119.5,332.8c0-4.7-3.8-8.5-8.5-8.5s-8.5,3.8-8.5,8.5v17.1c0,4.7,3.8,8.5,8.5,8.5s8.5-3.8,8.5-8.5V332.8z"/>
				<path d="M68.3,281.6v17.1c0,4.7,3.8,8.5,8.5,8.5s8.5-3.8,8.5-8.5v-17.1c0-4.7-3.8-8.5-8.5-8.5S68.3,276.9,68.3,281.6z"/>
				<path d="M187.7,332.8c0-4.7-3.8-8.5-8.5-8.5s-8.5,3.8-8.5,8.5v17.1c0,4.7,3.8,8.5,8.5,8.5s8.5-3.8,8.5-8.5V332.8z"/>
				<path d="M221.9,230.4c0-4.7-3.8-8.5-8.5-8.5s-8.5,3.8-8.5,8.5v17.1c0,4.7,3.8,8.5,8.5,8.5s8.5-3.8,8.5-8.5V230.4z"/>
				<path d="M221.9,179.2c0-4.7-3.8-8.5-8.5-8.5s-8.5,3.8-8.5,8.5v17.1c0,4.7,3.8,8.5,8.5,8.5s8.5-3.8,8.5-8.5V179.2z"/>
				<path d="M221.9,281.6c0-4.7-3.8-8.5-8.5-8.5s-8.5,3.8-8.5,8.5v17.1c0,4.7,3.8,8.5,8.5,8.5s8.5-3.8,8.5-8.5V281.6z"/>
				<path d="M213.3,324.3c-4.7,0-8.5,3.8-8.5,8.5v17.1c0,4.7,3.8,8.5,8.5,8.5s8.5-3.8,8.5-8.5v-17.1
					C221.9,328.1,218,324.3,213.3,324.3z"/>
				<path d="M221.9,128c0-4.7-3.8-8.5-8.5-8.5s-8.5,3.8-8.5,8.5v17.1c0,4.7,3.8,8.5,8.5,8.5s8.5-3.8,8.5-8.5V128z"/>
				<path d="M187.7,384c0-4.7-3.8-8.5-8.5-8.5s-8.5,3.8-8.5,8.5v17.1c0,4.7,3.8,8.5,8.5,8.5s8.5-3.8,8.5-8.5V384z"/>
				<path d="M110.9,221.9c4.7,0,8.5-3.8,8.5-8.5v-63l29.4-14.7c2.9-1.5,4.7-4.4,4.7-7.6V56.5l42.7-21.3l42.7,21.3V128
					c0,4.7,3.8,8.5,8.5,8.5s8.5-3.8,8.5-8.5V51.2c0-3.2-1.8-6.2-4.7-7.6l-46.5-23.2V8.5c0-4.7-3.8-8.5-8.5-8.5s-8.5,3.8-8.5,8.5
					v11.8l-46.5,23.2c-2.9,1.5-4.7,4.4-4.7,7.6v71.5l-29.4,14.7c-2.9,1.5-4.7,4.4-4.7,7.6v68.3C102.4,218,106.2,221.9,110.9,221.9z"
					/>
				<path d="M187.7,281.6c0-4.7-3.8-8.5-8.5-8.5s-8.5,3.8-8.5,8.5v17.1c0,4.7,3.8,8.5,8.5,8.5s8.5-3.8,8.5-8.5V281.6z"/>
				<path d="M179.2,426.7c-4.7,0-8.5,3.8-8.5,8.5v34.1c0,4.7,3.8,8.5,8.5,8.5s8.5-3.8,8.5-8.5v-34.1
					C187.7,430.5,183.9,426.7,179.2,426.7z"/>
				<path d="M221.9,76.8c0-4.7-3.8-8.5-8.5-8.5s-8.5,3.8-8.5,8.5v17.1c0,4.7,3.8,8.5,8.5,8.5s8.5-3.8,8.5-8.5V76.8z"/>
				<path d="M187.7,230.4c0-4.7-3.8-8.5-8.5-8.5s-8.5,3.8-8.5,8.5v17.1c0,4.7,3.8,8.5,8.5,8.5s8.5-3.8,8.5-8.5V230.4z"/>
			</g>
		</g>
	</g>
</g>
</svg>
