<?xml version="1.0" encoding="utf-8"?>
<!-- Generator: Adobe Illustrator 19.2.0, SVG Export Plug-In . SVG Version: 6.00 Build 0)  -->
<svg version="1.1" xmlns="http://www.w3.org/2000/svg" xmlns:xlink="http://www.w3.org/1999/xlink" x="0px" y="0px"
	 viewBox="0 0 512 512" style="enable-background:new 0 0 512 512;" xml:space="preserve">
<style type="text/css">
	.st0{fill:#4EB543;}
</style>
<g id="Слой_3">
	<path class="st0" d="M261.8,478.6c-44.7,0.1-89.3,0.1-134,0.2c-1,5.2-4.9,9.7-11.8,9.7c-6.8,0-10.8-4.5-11.8-9.7c-14,0-28,0-42,0
		c-12.9,0-12.9,20,0,20c66.5-0.1,133-0.2,199.5-0.2C274.6,498.6,274.6,478.6,261.8,478.6z"/>
	<path class="st0" d="M197,382.5c-9.3,10.2-14.1,15.8-24.8,28.7c-7.3,8.7-13.3,15.1-22.9,25.7c-4.3,4.8,2.1,11,7.1,7.1
		c0.9-0.7,1.8-1.5,2.7-2.2c0.8,0.3,1.8,0.4,2.9,0.2c4.2-0.9,8.4-1.8,12.7-2.4c4-0.5,7.9-0.2,11.9-0.6c0.3,0,0.5-0.1,0.8-0.1
		c1.9,3.2,8,2.9,9.3-1.4c1.5-4.9,4-10,3.1-15.2c-0.2-1-0.6-1.7-1.1-2.3c0.2-1.5,0.3-3,0.5-4.5c0.8-6.7,3.4-13.1,3.7-19.9
		c0.1-1.2-0.5-2.4-1.3-3.2c0.9-0.9,1.7-1.8,2.6-2.6C208.5,384.9,201.3,377.7,197,382.5z"/>
	<path class="st0" d="M197,279.8c-9.3,10.2-14.1,15.8-24.8,28.7c-7.3,8.7-13.3,15.1-22.9,25.7c-4.3,4.8,2.1,11,7.1,7.1
		c0.9-0.7,1.8-1.5,2.7-2.2c0.8,0.3,1.8,0.4,2.9,0.2c4.2-0.9,8.4-1.8,12.7-2.4c4-0.5,7.9-0.2,11.9-0.6c0.3,0,0.5-0.1,0.8-0.1
		c1.9,3.2,8,2.9,9.3-1.4c1.5-4.9,4-10,3.1-15.2c-0.2-1-0.6-1.7-1.1-2.3c0.2-1.5,0.3-3,0.5-4.5c0.8-6.7,3.4-13.1,3.7-19.9
		c0.1-1.2-0.5-2.4-1.3-3.2c0.9-0.9,1.7-1.8,2.6-2.6C208.5,282.2,201.3,275,197,279.8z"/>
	<path class="st0" d="M197,177.1c-9.3,10.2-14.1,15.8-24.8,28.7c-7.3,8.7-13.3,15.1-22.9,25.7c-4.3,4.8,2.1,11,7.1,7.1
		c0.9-0.7,1.8-1.5,2.7-2.2c0.8,0.3,1.8,0.4,2.9,0.2c4.2-0.9,8.4-1.8,12.7-2.4c4-0.5,7.9-0.2,11.9-0.6c0.3,0,0.5-0.1,0.8-0.1
		c1.9,3.2,8,2.9,9.3-1.4c1.5-4.9,4-10,3.1-15.2c-0.2-1-0.6-1.7-1.1-2.3c0.2-1.5,0.3-3,0.5-4.5c0.8-6.7,3.4-13.1,3.7-19.9
		c0.1-1.2-0.5-2.4-1.3-3.2c0.9-0.9,1.7-1.8,2.6-2.6C208.5,179.6,201.3,172.4,197,177.1z"/>
	<rect x="405.3" y="360" class="st0" width="55.3" height="46"/>
</g>
<g id="Layer_1">
	<g>
		<g>
			<path d="M42.9,487.1v3.3c0,11.9,9.7,21.6,21.6,21.6h194.8c11.9,0,21.6-9.7,21.6-21.6v-3.3c0-11.9-9.7-21.6-21.6-21.6H256
				l-14.9-26.2c-1.4-2.5-4.1-4.1-7-4.1h-22.5v-95.6V236v-51.3h65.6c4.5,0,8.1-3.6,8.1-8.1v-10.8h117.5c1,7.9,6.2,14.4,13.3,17.3
				v95.1c-7.3,3.1-12.4,10.4-12.4,18.8c0,3.7,1,7.1,2.7,10.1l-18.5,24.4h-0.6c-4.5,0-8.1,3.6-8.1,8.1v44.2v23.9
				c0,4.5,3.6,8.1,8.1,8.1H461c4.5,0,8.1-3.6,8.1-8.1v-23.9v-44.2c0-4.5-3.6-8.1-8.1-8.1h-0.6L442,307.1c1.7-3,2.7-6.4,2.7-10.1
				c0-8.4-5.1-15.7-12.4-18.8v-94.1c9.6-2.2,16.8-10.8,16.8-21v-22.9c10.4-1.5,18.5-10.5,18.5-21.3v-3.3c0-11.9-9.7-21.6-21.6-21.6
				h-18.9L185,19.6C184,8.6,174.8,0,163.5,0l-3.3,0c-11.9,0-21.6,9.7-21.6,21.6V33c-0.7,0.4-1.3,0.8-1.9,1.4L76.4,93.9h-12
				c-11.9,0-21.6,9.7-21.6,21.6v3.3c0,9,5.6,16.8,13.5,20v37.8c0,4.5,3.6,8.1,8.1,8.1H95c4.5,0,8.1-3.6,8.1-8.1v-36.2h9V236l0,103.6
				v95.6H89.6c-2.9,0-5.6,1.6-7,4.1l-14.9,26.2h-3.2C52.6,465.5,42.9,475.2,42.9,487.1z M72.6,140.4h14.4v28.1H72.6V140.4z
				 M138.6,93.9H99.5l39.1-38.6V93.9z M168.9,21.6v72.3h-14.2V21.6c0-3,2.4-5.4,5.4-5.4h3.3C166.5,16.2,168.9,18.6,168.9,21.6
				L168.9,21.6L168.9,21.6z M427.5,168.5h-3.3c-3,0-5.4-2.4-5.4-5.4v-22.7h14.2v22.7C432.9,166,430.5,168.5,427.5,168.5z
				 M424.2,292.7c2.4,0,4.3,1.9,4.3,4.3c0,1.4-0.7,2.7-1.8,3.5c-0.1,0.1-0.2,0.2-0.4,0.2c-0.1,0-0.2,0.1-0.2,0.1
				c-0.1,0.1-0.3,0.1-0.4,0.2c-0.1,0-0.3,0.1-0.4,0.1c-0.1,0-0.2,0.1-0.3,0.1c-0.3,0.1-0.6,0.1-0.8,0.1s-0.6,0-0.8-0.1
				c-0.1,0-0.2-0.1-0.3-0.1c-0.1,0-0.3-0.1-0.4-0.1c-0.1-0.1-0.3-0.1-0.4-0.2c-0.1,0-0.2-0.1-0.2-0.1c-0.1-0.1-0.3-0.2-0.4-0.2
				c-1.1-0.8-1.8-2-1.8-3.5C419.9,294.6,421.8,292.7,424.2,292.7z M395.4,399.7v-7.8H453v7.8H395.4z M453,347.7v28.1h-57.5v-28.1
				H453z M419.3,316.9c0.2,0,0.4,0.1,0.6,0.1c0.1,0,0.2,0,0.3,0.1c0.6,0.1,1.2,0.2,1.7,0.3c0.1,0,0.3,0,0.4,0c0.5,0,1.1,0.1,1.6,0.1
				c0.1,0,0.1,0,0.2,0c0.1,0,0.1,0,0.2,0c0.5,0,1.1,0,1.6-0.1c0.1,0,0.3,0,0.4,0c0.6-0.1,1.2-0.2,1.7-0.3c0.1,0,0.2,0,0.3-0.1
				c0.2,0,0.4-0.1,0.6-0.1l11.1,14.6h-31.9L419.3,316.9z M285.3,140.4h117.3v9.2H285.3V140.4z M211.6,140.4h57.5v28.1h-57.5V140.4z
				 M203.5,124.2h-83.2c0,0,0,0,0,0h-0.1H95H64.5c-3,0-5.4-2.4-5.4-5.4v-3.3c0-3,2.4-5.4,5.4-5.4h82.2H177h31.9
				c4.5,0,8.1-3.6,8.1-8.1s-3.6-8.1-8.1-8.1h-23.8V36.6l186.8,57.3H237.3c-4.5,0-8.1,3.6-8.1,8.1s3.6,8.1,8.1,8.1h188.5c0,0,0,0,0,0
				s0,0,0,0H446c3,0,5.4,2.4,5.4,5.4v3.3c0,3-2.4,5.4-5.4,5.4h-5h-30.3H277.2H203.5z M137.1,331.5l24.8-30.8l24.8,30.8H137.1z
				 M186.6,347.7l-24.8,30.8l-24.8-30.8H186.6z M172.2,287.8l23.2-28.9v57.7L172.2,287.8z M161.9,274.9L137.1,244h49.5L161.9,274.9z
				 M137.1,227.9l24.8-30.8l24.8,30.8H137.1z M161.9,171.2l-24.8-30.8h49.5L161.9,171.2z M195.4,155.3v21.3V213l-23.2-28.9
				L195.4,155.3z M195.4,420.3l-23.2-28.9l23.2-28.9V420.3z M186.6,435.2h-49.5l24.8-30.8L186.6,435.2z M128.3,420.3v-57.7
				l23.2,28.9L128.3,420.3z M128.3,316.6v-57.7l23.2,28.9L128.3,316.6z M128.3,213v-57.7l23.2,28.9L128.3,213z M59.1,490.4v-3.3
				c0-3,2.4-5.4,5.4-5.4h7.9c0,0,0,0,0,0s0,0,0,0h29.5c4.5,0,8.1-3.6,8.1-8.1c0-4.5-3.6-8.1-8.1-8.1H86.3l8.1-14.2h25.9h83.3h25.9
				l8.1,14.2H131c-4.5,0-8.1,3.6-8.1,8.1s3.6,8.1,8.1,8.1h120.5c0,0,0,0,0,0h7.7c3,0,5.4,2.4,5.4,5.4v3.3c0,3-2.4,5.4-5.4,5.4H64.5
				C61.5,495.8,59,493.4,59.1,490.4L59.1,490.4z"/>
		</g>
	</g>
</g>
</svg>
