<?xml version="1.0" encoding="utf-8"?>
<!-- Generator: Adobe Illustrator 19.2.0, SVG Export Plug-In . SVG Version: 6.00 Build 0)  -->
<svg version="1.1" xmlns="http://www.w3.org/2000/svg" xmlns:xlink="http://www.w3.org/1999/xlink" x="0px" y="0px"
	 viewBox="0 0 512 512" style="enable-background:new 0 0 512 512;" xml:space="preserve">
<style type="text/css">
	.st0{fill:#4EB543;}
</style>
<g id="Слой_3">
	<path class="st0" d="M270.6,294.6c-3.8-7.5-10.9-14.9-19.6-9c-1,0.7-1.9,1.5-2.6,2.4c-3.5,0.7-6.6,2.7-8.7,6.1
		c-1.6,2.5-2.5,5.9-2.9,9.5c-0.6,1.4-0.7,3-0.1,4.7c0.5,11.5,6.5,23.8,17.7,23.8c0.9,0.1,1.9,0,2.8-0.3c3.7-0.8,5.9-3.1,7.7-6
		c0.4-0.5,0.7-1,1.1-1.5c3-4.3,7.7-10.8,7.3-16.5C273.8,303.5,272.9,299.1,270.6,294.6z"/>
	<polygon class="st0" points="377.5,404 392,290.7 455,245 422.5,404 	"/>
	<polygon class="st0" points="134.5,404 120,290.7 57,245 89.5,404 	"/>
	<path class="st0" d="M490.1,184c-5-6.2-5.6-14.5-5.3-22.2c0.1-0.3,0.1-0.5,0.2-0.8c0.5-2,0.2-3.7-0.5-5.2c-1.1-2.8-3.9-4.2-6.8-4.1
		c-2.1-0.1-4.1,0.6-5.6,2.2c0,0,0,0,0,0c-2.3-0.1-4.7,0.9-6.4,3.4c-5.8,8.4-8.1,19.8-3.7,29.4c4,8.9,14.3,14.4,23.8,11
		c1.5-0.5,2.6-1.3,3.4-2.3c0.3-0.2,0.7-0.5,1-0.8C493.3,191.5,492.7,187.2,490.1,184z"/>
	<path class="st0" d="M367.2,130.2c-2.7-2.3-6.7-2.9-9.8,0.4c-6.1,6.2-11.2,13.8-9.3,22.9c1.7,8.3,8.8,13.8,15.5,18.2
		c5.7,3.8,12.4-2.5,11-8.5c-1.7-7.6-0.9-15.3,2.6-22.3C380.6,133.9,372.5,127.5,367.2,130.2z"/>
	<path class="st0" d="M261.7,104.3c-0.4-1.5-0.7-3-0.6-4.5c0.1-1.2,0.3-2.5,0.6-3.7c0.3-3.3,1.1-6.7,2.3-10.1
		c0.3-0.9,0.8-1.6,1.3-2.1c-0.3-6-8.9-8.5-13.2-4.1c-2-0.3-4.1,0.2-6,1.8c-6.9,5.6-14.6,11.2-14.4,21c0.2,9.8,7.8,16.9,16.3,20.3
		c3.8,1.5,8.4,3,12.3,0.9c3-1.7,4.1-4.5,4.2-7.6C263.1,112.1,262.1,108.2,261.7,104.3z"/>
	<path class="st0" d="M153,142.5c6.1-7.2-4-17.6-10.3-11c-2.7-2.3-6.8-3-10.1,0.1c-12,11-13.8,32,1.7,41.1c3.4,2,7.3,3.2,10.9,1.3
		c4.1-2.1,5.6-6.9,4.3-11.1c-1.1-3.5-2.7-5.7-2.1-9.6C148.1,149.3,150.4,145.6,153,142.5z"/>
	<path class="st0" d="M41.4,155c-0.6,0.1-1.2,0.3-1.8,0.5c-1-0.6-2.2-1-3.7-1c-9-0.3-20.5,7.3-23.3,16.1c-2.6,8.3,1.1,21.6,8,27
		c5,4,12.6,1.6,12.8-5.3c0.2-5.2-0.9-10.7,1.7-15.4c2.2-4,5.9-6.4,10.3-7.4C54.8,167.3,50.9,152.8,41.4,155z"/>
</g>
<g id="Layer_1">
	<g>
		<g>
			<g>
				<path d="M249.6,272.6l-24.8,31.7c-2.3,2.9-2.3,7,0,9.9l24.8,31.8c1.5,2,3.9,3.1,6.4,3.1c2.5,0,4.8-1.1,6.4-3.1l24.8-31.8
					c2.3-2.9,2.3-7,0-9.9l-24.8-31.7c-1.5-2-3.9-3.1-6.4-3.1C253.5,269.5,251.2,270.6,249.6,272.6z M270.5,309.3L256,327.9
					l-14.5-18.6l14.5-18.6L270.5,309.3z"/>
				<path d="M479.2,142.9c-18.1,0-32.8,14.7-32.8,32.8c0,8.6,3.4,16.5,8.8,22.4l-43.8,27.7L380.9,181c11.5-5.1,19.5-16.6,19.5-30
					c0-18.1-14.7-32.8-32.8-32.8c-18.1,0-32.8,14.7-32.8,32.8c0,12,6.4,22.4,16,28.2l-27.8,23l-53.1-71c11.2-5.2,19-16.6,19-29.8
					c0-18.1-14.7-32.8-32.8-32.8s-32.8,14.7-32.8,32.8c0,13.2,7.8,24.5,19,29.8l-53.1,71l-27.8-23c9.6-5.7,16-16.2,16-28.2
					c0-18.1-14.7-32.8-32.8-32.8s-32.8,14.7-32.8,32.8c0,13.4,8,24.9,19.5,30l-30.4,44.8l-43.8-27.7c5.5-5.9,8.8-13.7,8.8-22.4
					c0-18.1-14.7-32.8-32.8-32.8C14.7,142.9,0,157.6,0,175.7s14.7,32.8,32.8,32.8c2,0,4-0.2,5.9-0.5l38.2,192.7
					c-8.7,2.9-14.9,11.1-14.9,20.8c0,12.1,9.8,21.9,21.9,21.9h265.8c4.5,0,8.1-3.6,8.1-8.1c0-4.5-3.6-8.1-8.1-8.1H83.9
					c-3.2,0-5.7-2.6-5.7-5.7s2.6-5.7,5.7-5.7h2.6h338.9h2.7c3.2,0,5.7,2.6,5.7,5.7s-2.6,5.7-5.7,5.7h-52c-4.5,0-8.1,3.6-8.1,8.1
					c0,4.5,3.6,8.1,8.1,8.1h52c12.1,0,21.9-9.8,21.9-21.9c0-9.6-6.3-17.8-14.9-20.8L473.3,208c1.9,0.3,3.9,0.5,5.9,0.5
					c18.1,0,32.8-14.7,32.8-32.8C512,157.6,497.3,142.9,479.2,142.9z M32.8,192.4c-9.2,0-16.7-7.5-16.7-16.7
					c0-9.2,7.5-16.7,16.7-16.7s16.7,7.5,16.7,16.7S42,192.4,32.8,192.4z M367.6,134.3c9.2,0,16.7,7.5,16.7,16.7
					c0,9.2-7.5,16.7-16.7,16.7s-16.7-7.5-16.7-16.7C350.9,141.8,358.4,134.3,367.6,134.3z M365.9,187.6l31.8,46.8l-34.4,21.7
					l-30.6-41L365.9,187.6z M239.3,101.4c0-9.2,7.5-16.7,16.7-16.7c9.2,0,16.7,7.5,16.7,16.7s-7.5,16.7-16.7,16.7
					C246.8,118.1,239.3,110.6,239.3,101.4z M127.8,151c0-9.2,7.5-16.7,16.7-16.7s16.7,7.5,16.7,16.7s-7.5,16.7-16.7,16.7
					C135.2,167.6,127.8,160.2,127.8,151z M146.1,187.6l33.3,27.5l-30.6,41l-34.4-21.7L146.1,187.6z M93.2,399.6L57,217.3l41.6,26.3
					l2.1,1.3l40.6,25.6l15,129L93.2,399.6L93.2,399.6z M339.6,399.6h-167l-14.9-128.5L256,139.7l98.5,131.6L339.6,399.6z
					 M418.8,399.6h-63l15-129.1l42.5-26.8c0.1,0,0.1-0.1,0.2-0.1l41.4-26.1L418.8,399.6z M479.2,192.4c-9.2,0-16.7-7.5-16.7-16.7
					s7.5-16.7,16.7-16.7s16.7,7.5,16.7,16.7S488.4,192.4,479.2,192.4z"/>
			</g>
		</g>
	</g>
</g>
</svg>
