<?xml version="1.0" encoding="utf-8"?>
<!-- Generator: Adobe Illustrator 19.2.0, SVG Export Plug-In . SVG Version: 6.00 Build 0)  -->
<svg version="1.1" xmlns="http://www.w3.org/2000/svg" xmlns:xlink="http://www.w3.org/1999/xlink" x="0px" y="0px"
	 viewBox="0 0 512 512" style="enable-background:new 0 0 512 512;" xml:space="preserve">
<style type="text/css">
	.st0{fill:#4EB543;}
</style>
<g id="Слой_3">
	<path class="st0" d="M123.3,227.4c-7-3.3-11.1-9.3-10.9-16.6c0.1-3.6,2.3-8.7,4-12.8c2.5-5.9,4.2-11.6,4.5-18
		c0.2-5-3.7-9.8-8.4-11.1c-5.2-1.4-10,1.1-13,5.3c-2.8,4.1-10,4.9-14.8,3.8c-4.2-0.9-7.9-2.7-11.5-4.8c-2.3-1.3-4.4-2.8-6.6-4.3
		c-0.5-0.3-1-0.8-1.4-1.2c-1-11.4-19.6-13.1-22.6-1.3c-0.5,2.1-0.7,4-0.5,5.7c0,6.4,1,13-0.4,19.2c-0.4,1.9-1.1,3.8-2.5,5.3
		c-0.6,0.7-0.7,0.6-1.2,1c-0.1,0-0.1,0.1-0.2,0.1c-0.2,0-0.5,0-0.8,0c-4.9-0.1-8.3,2.7-10,6.2c-11.7,0.3-15.6,19.1-2.6,22.6
		c7.1,1.9,14.3,3.6,21.3,5.8c4.6,1.5,6.1,2.3,6.9,7.3c0.7,4.2,1.1,8.8,2.6,12.8c-6.1,9.4,6.6,21.7,15.9,15.5
		c4.3-2.8,7.7-6.2,11-10.1c2.2-2.6,4.8-6.2,7.6-7.6c3.9-1.8,8.8-1.2,12.9-1c6.1,0.3,11.9,0.2,17.9-0.8
		C130.1,246.8,131.9,231.4,123.3,227.4z"/>
	<g>
		<path class="st0" d="M77.8,385.4c-0.9-0.3-1.9-2.6-1.7-3.4c0.9-5.1-0.6-10.2-5.3-13c-4.2-2.4-10.6-2-13.9,1.8
			c-4.2,4.8-9.4,5.5-14.4,2.2c-12.5-8.1-24,11.8-11.6,19.9c2,1.3,4.1,2.3,6.3,3.1c-1.1,0.9-2.1,1.9-3,2.8c-4.1,4.6-4.6,11.7,0,16.3
			c3.4,3.4,9.3,4.4,13.6,2.1c1.2,1.8,2.4,3.5,3.6,5.2c4.1,5.5,12.7,8.4,18.1,2.3c2.6-2.9,4.2-6,4.4-10c0-0.7,0.1-1.6,0.1-2.4
			c-0.2,0.4-0.7,0.6-1.5,0.5c-0.8-0.1,0.6-0.6,1.4-0.8c0-0.3-0.1-0.6-0.1-0.9c-0.6-2.2,0.6-0.4,0.3,0.9c0.1,0,0.2-0.1,0.3-0.1
			c1.2-0.5,2.6-0.7,3.9-1.1c4.3-1.4,8.1-4.4,9.5-8.9C90.2,393.6,84.8,388,77.8,385.4z"/>
		<path class="st0" d="M73.9,412.3c0.1-0.1,0.1-0.2,0.1-0.4c0,0-0.1,0-0.2,0C73.9,412.1,73.9,412.2,73.9,412.3z"/>
	</g>
	<path class="st0" d="M477.4,400.5c-0.2-0.2-0.4-0.5-0.5-0.7c0.1-0.2,0.3-0.5,0.4-0.9c2.9-3.7,4.5-8.7,4.4-13.3
		c-0.1-7.3-7.3-13.3-14.6-11.1c-2.1,0.6-4.8,1.7-7.3,2.3c-1.2-1.7-2.4-3.9-2.8-5.5c-3.7-14.3-25.9-8.2-22.2,6.1
		c0.6,2.4,1.6,4.9,2.8,7.3c-1.4,0-2.8,0.1-4.1,0.2c-6.2,0.4-11.5,5-11.5,11.5c0,5.9,5.3,11.9,11.5,11.5c0.8-0.1,2.1-0.1,3.4-0.2
		c-1.4,3.2-1.9,6.9-1.1,10.9c0.9,4.9,6.4,8.4,11.1,8.4c5.1,0,9.1-3.4,10.9-8c0.4,0.4,0.8,0.6,0.8,0.7c5,3.9,11.4,4.4,16.9,1.3
		c5.4-3.1,7.2-10.4,4.1-15.7C479,403.7,478.2,402.1,477.4,400.5z"/>
	<path class="st0" d="M497.8,218c-1.6-5.6-6.7-8.6-12.2-8.3c-0.7-0.4-1.4-0.7-2.1-0.9c-14.6-4.5-21.1-19.9-15.7-34.4
		c1.7-4.7-1.2-10.6-5.3-13c-4.6-2.7-10-1.5-13.9,1.8c-3,2.5-5.4,5.5-8.1,8.4c-1.2,1.3-2.4,2.7-3.8,3.8c-0.5,0.4-1.1,1-2.1,0.9
		c-2.7-0.3-7.3-2.6-10.3-3.6l-16.7-5.8c-4.5-1.5-10.9,1-13,5.3c-4.8,9.8-3,19.1,1.3,28.7c1.4,3,3.1,6,3.6,9.3c0-0.1,0,0.1,0,0.4
		c-5.7,1.9-7.8,6.8-7.2,11.6c-1.1,0.6-2.3,1.3-3.4,2c-5.1,3.5-7.4,10.1-4.1,15.7c2.9,5,10.6,7.7,15.7,4.1
		c14.8-10.3,28.8,5.8,35.1,18.5c4.8,9.6,17.9,5.8,21-2.7c2.7-7.4,1.5-17,7.2-21.6c3.2-2.6,8.2-4.3,13.2-5.6
		c4.1,0.6,8.3,0.6,12.7-0.3C495.8,230.9,499.4,223.7,497.8,218z"/>
	<path class="st0" d="M301.8,79.5c-0.1,0.6-0.2,1.2-0.4,1.8c-1.2-0.9-2.6-1.4-4-1.8c-1.6,4.3-4.3,8.1-8,11.3
		c-4.3,3.6-9.9,3.9-14.1,0c-3.6-3.3-3.9-9.9-0.6-13.5c-1.2-0.7-2.5-1.2-3.9-1.3c0.2-1.6,0.6-3.2,1.5-4.5c-2.1-5.1-3.3-10.6-3.3-16
		c0-10-12.6-15.2-19.6-8.1c-8.1,8.1-8.6,18.7-11.4,29.2c-0.1,0.4-0.4,1.3-0.5,1.5c-0.3,0.4-0.6,1.1-0.7,1.3
		c-0.3,0.2-0.4,0.4-0.4,0.5c-0.2,0.1-0.4,0.3-0.7,0.5c0.2,0-1.7,0.2-1.4,0.2c-3.1,0.4-6.4-0.2-9.5-0.2c-3.7-0.1-7.3,0.3-10.9,1
		c-6,1.2-9.7,8.6-8,14.1c2.7,9.3,9.7,15.6,16.2,22.2c0.2,0.2,1,1.2,1.1,1.2c0.4,0.6,0.8,1.2,1.2,1.9c0.1,0.1,0.1,0.2,0.2,0.3
		c0,0.1,0,0.3,0.1,0.5c0-0.2,0-0.3,0-0.5c0.1,0,0.1-0.1,0-0.3c0.1-0.2,0.2,0.1,0,1c-1.5,5.3-3.7,10.4-3.6,16.2
		c0.1,10.3,11.2,13.4,17.9,9.4c2.9,0,5.6-1.2,8-3.3c3.9-3.3,10-4.2,14.6-3c7.3,1.8,11.9,9.5,20.9,9.1c8-0.3,12.4-7,11.1-14.6
		c-1.4-7.6-0.3-15.2,2.5-22.4c1.5-3.8,2.7-7.4,2.3-11c0.1,0,0.2,0,0.3,0c6.2-0.4,11.5-5,11.5-11.5C309.8,85.7,306.4,81,301.8,79.5z"
		/>
</g>
<g id="Layer_1">
	<g>
		<g>
			<path d="M328.7,79.2c-1-3-3.6-5.3-6.8-5.7L304,70.9c-4.6-0.7-8.9,2.5-9.5,7.1c-0.7,4.6,2.5,8.9,7.1,9.5l1,0.2l-20.2,19.7
				c-2,1.9-2.9,4.7-2.4,7.4l4.8,27.8l-24.9-13.1c-2.4-1.3-5.4-1.3-7.8,0l-24.9,13.1l4.8-27.8c0.5-2.7-0.4-5.5-2.4-7.4l-20.2-19.7
				l27.9-4.1c2.7-0.4,5.1-2.1,6.3-4.6L256,53.8L268.5,79c2.1,4.2,7.1,5.9,11.3,3.8c4.2-2.1,5.9-7.1,3.8-11.3l-20-40.5
				c-1.4-2.9-4.3-4.7-7.5-4.7c-3.2,0-6.1,1.8-7.5,4.7l-18,36.6l-40.4,5.9c-3.2,0.5-5.8,2.7-6.8,5.7c-1,3-0.2,6.4,2.1,8.6l29.2,28.5
				l-6.9,40.2c-0.5,3.2,0.8,6.3,3.3,8.2c1.5,1.1,3.2,1.6,4.9,1.6c1.3,0,2.7-0.3,3.9-1l36.1-19l36.1,19c2.8,1.5,6.3,1.2,8.9-0.6
				c2.6-1.9,3.9-5.1,3.3-8.2l-6.9-40.2l29.2-28.5C328.9,85.6,329.7,82.3,328.7,79.2z"/>
		</g>
	</g>
	<g>
		<g>
			<path d="M142.8,239.4l-24.1-32.9l13.5-38.5c1.1-3,0.3-6.4-1.9-8.7c-2.2-2.3-5.6-3.1-8.6-2.1L83,169.9l-32.4-24.7
				c-2.5-1.9-6-2.3-8.8-0.8c-2.9,1.4-4.7,4.4-4.7,7.5l0.1,40.8L3.6,215.9c-2.6,1.8-4,5-3.5,8.1s2.7,5.8,5.7,6.8l38.8,12.5l11.7,39.1
				c0.9,3.1,3.5,5.3,6.7,5.9c0.5,0.1,0.9,0.1,1.4,0.1c2.7,0,5.2-1.3,6.8-3.5l23.9-33.1l40.8,0.9c3.2,0.1,6.2-1.7,7.6-4.5
				C145,245.4,144.7,242,142.8,239.4z M91.1,234.9c-2.8-0.1-5.4,1.2-7,3.5l-16.5,22.8l-8.1-27c-0.8-2.6-2.8-4.7-5.5-5.6l-26.8-8.6
				l23.2-16c2.3-1.6,3.6-4.2,3.6-6.9l-0.1-28.2L76.3,186c2.2,1.7,5.1,2.2,7.7,1.3l26.8-8.8l-9.3,26.6c-0.9,2.6-0.5,5.5,1.1,7.7
				l16.6,22.7L91.1,234.9z"/>
		</g>
	</g>
	<g>
		<g>
			<path d="M508.4,215.9l-33.5-23.2l0.1-40.8c0-3.2-1.8-6.1-4.7-7.6c-2.9-1.4-6.3-1.1-8.8,0.8L429,169.9l-38.7-12.7
				c-3-1-6.4-0.2-8.6,2.1c-2.2,2.3-3,5.6-1.9,8.7l13.5,38.5l-24.1,32.9c-1.9,2.6-2.1,6-0.7,8.8c1.5,2.8,4.5,4.6,7.6,4.5l40.8-0.9
				l23.9,33.1c1.6,2.2,4.1,3.5,6.8,3.5c0.5,0,0.9,0,1.4-0.1c3.2-0.5,5.7-2.8,6.7-5.9l11.7-39.1l38.8-12.5c3-1,5.3-3.6,5.7-6.8
				C512.4,220.9,511,217.7,508.4,215.9z M458,228.7c-2.6,0.8-4.7,2.9-5.5,5.6l-8.1,27l-16.5-22.8c-1.6-2.2-4.1-3.5-6.8-3.5
				c-0.1,0-0.1,0-0.2,0l-28.2,0.6l16.6-22.7c1.6-2.2,2.1-5.1,1.1-7.7l-9.3-26.6l26.8,8.8c2.6,0.9,5.5,0.4,7.7-1.3l22.4-17.1
				l-0.1,28.2c0,2.8,1.3,5.4,3.6,6.9l23.2,16L458,228.7z"/>
		</g>
	</g>
	<g>
		<g>
			<path d="M486.4,396.3l12.4-23.2c1.5-2.8,1.3-6.3-0.6-8.9c-1.9-2.6-5-3.9-8.2-3.4l-26,4.3l-18.3-19c-2.2-2.3-5.6-3.1-8.6-2.2
				c-3,1-5.3,3.6-5.8,6.7l-4,26l-23.7,11.5c-2.9,1.4-4.7,4.3-4.7,7.5c0,3.2,1.8,6.1,4.6,7.6l23.5,11.8l3.6,26.1
				c0.4,3.2,2.6,5.8,5.7,6.8c0.9,0.3,1.8,0.4,2.6,0.4c2.2,0,4.4-0.9,6-2.5l18.5-18.7l25.9,4.6c3.2,0.6,6.3-0.7,8.2-3.3
				c1.9-2.6,2.2-6,0.7-8.8L486.4,396.3z M469.4,400.1l6.3,12.2l-13.5-2.4c-2.7-0.5-5.5,0.4-7.5,2.4l-9.6,9.8l-1.9-13.6
				c-0.4-2.7-2.1-5.1-4.6-6.4l-12.3-6.2l12.3-6c2.5-1.2,4.2-3.6,4.6-6.3l2.1-13.6l9.5,9.9c1.9,2,4.7,2.9,7.4,2.5l13.5-2.2l-6.5,12.1
				C468.2,394.7,468.2,397.6,469.4,400.1z"/>
		</g>
	</g>
	<g>
		<g>
			<path d="M108.2,388.2l-23.7-11.5l-4-26c-0.5-3.2-2.7-5.8-5.8-6.7c-3.1-1-6.4-0.1-8.6,2.2l-18.3,19l-26-4.3
				c-3.2-0.5-6.3,0.8-8.2,3.4c-1.9,2.6-2.1,6-0.6,8.9l12.4,23.2l-12.1,23.4c-1.5,2.8-1.2,6.3,0.7,8.8c1.9,2.6,5.1,3.9,8.2,3.3
				l25.9-4.6l18.5,18.7c1.6,1.6,3.8,2.5,6,2.5c0.9,0,1.8-0.1,2.6-0.4c3-1,5.2-3.7,5.7-6.8l3.6-26.1l23.5-11.8
				c2.9-1.4,4.7-4.4,4.6-7.6C112.9,392.5,111.1,389.6,108.2,388.2z M73.3,402c-2.5,1.2-4.2,3.6-4.6,6.4L66.9,422l-9.6-9.8
				c-1.6-1.6-3.8-2.5-6-2.5c-0.5,0-1,0-1.5,0.1l-13.5,2.4l6.3-12.2c1.3-2.5,1.3-5.4,0-7.8L36,380.1l13.5,2.2
				c2.7,0.5,5.5-0.5,7.4-2.5l9.5-9.9l2.1,13.6c0.4,2.7,2.1,5.1,4.6,6.3l12.3,6L73.3,402z"/>
		</g>
	</g>
	<g>
		<g>
			<path d="M351.7,332.6c-3.6-3-8.9-2.5-11.8,1.1c-45,53.8-58.8,107.3-62.4,142.7c-0.5,4.6,2.9,8.7,7.5,9.2c0.3,0,0.6,0,0.9,0
				c4.3,0,7.9-3.2,8.4-7.5c6.2-59.9,35.3-105.8,58.6-133.6C355.8,340.9,355.3,335.6,351.7,332.6z"/>
		</g>
	</g>
	<g>
		<g>
			<path d="M404.5,286.3c-2.6-3.9-7.8-4.9-11.7-2.3c-0.6,0.4-14.9,10-33.3,28.3c-3.3,3.3-3.3,8.6-0.1,11.9c1.6,1.7,3.8,2.5,6,2.5
				c2.1,0,4.3-0.8,5.9-2.4c17.2-17,30.6-26.1,30.8-26.2C406.1,295.4,407.1,290.2,404.5,286.3z"/>
		</g>
	</g>
	<g>
		<g>
			<path d="M234.6,476.3c-1.5-15-4.5-30-8.8-44.5c-1.3-4.5-6-7-10.4-5.7c-4.5,1.3-7,6-5.7,10.4c4,13.5,6.8,27.5,8.2,41.4
				c0.4,4.3,4.1,7.5,8.3,7.5c0.3,0,0.6,0,0.9,0C231.7,485.1,235,481,234.6,476.3z"/>
		</g>
	</g>
	<g>
		<g>
			<path d="M215.6,403.7c-33-76.9-93.9-118.1-96.5-119.8c-3.9-2.6-9.1-1.5-11.7,2.3c-2.6,3.9-1.5,9.1,2.3,11.7
				c0.6,0.4,59.3,40.1,90.3,112.4c1.4,3.2,4.5,5.1,7.7,5.1c1.1,0,2.2-0.2,3.3-0.7C215.4,413,217.4,408,215.6,403.7z"/>
		</g>
	</g>
	<g>
		<g>
			<path d="M256,198.1c-4.6,0-8.4,3.8-8.4,8.4v36.9c0,4.6,3.8,8.4,8.4,8.4c4.6,0,8.4-3.8,8.4-8.4v-36.9
				C264.4,201.9,260.6,198.1,256,198.1z"/>
		</g>
	</g>
	<g>
		<g>
			<path d="M256,263c-4.6,0-8.4,3.8-8.4,8.4v153.7c0,4.6,3.8,8.4,8.4,8.4c4.6,0,8.4-3.8,8.4-8.4V271.4
				C264.4,266.8,260.6,263,256,263z"/>
		</g>
	</g>
	<g>
		<g>
			<path d="M190.3,467.4c-21.7-37.9-62.3-48.9-64-49.3c-4.5-1.2-9.1,1.5-10.2,6c-1.2,4.5,1.5,9.1,6,10.3c0.4,0.1,35.6,9.8,53.7,41.4
				c1.6,2.7,4.4,4.2,7.3,4.2c1.4,0,2.8-0.4,4.2-1.1C191.2,476.6,192.6,471.4,190.3,467.4z"/>
		</g>
	</g>
	<g>
		<g>
			<path d="M395.9,424.1c-1.2-4.5-5.8-7.2-10.3-6c-1.7,0.4-42.3,11.4-64,49.3c-2.3,4-0.9,9.2,3.1,11.5c1.3,0.8,2.7,1.1,4.2,1.1
				c2.9,0,5.8-1.5,7.3-4.2c18.1-31.6,53.3-41.3,53.7-41.4C394.4,433.1,397.1,428.6,395.9,424.1z"/>
		</g>
	</g>
</g>
</svg>
