<?xml version="1.0" encoding="utf-8"?>
<!-- Generator: Adobe Illustrator 19.2.0, SVG Export Plug-In . SVG Version: 6.00 Build 0)  -->
<svg version="1.1" xmlns="http://www.w3.org/2000/svg" xmlns:xlink="http://www.w3.org/1999/xlink" x="0px" y="0px"
	 viewBox="0 0 505.1 505.1" style="enable-background:new 0 0 505.1 505.1;" xml:space="preserve">
<style type="text/css">
	.st0{fill:#4EB543;}
</style>
<g id="Слой_3">
	<path class="st0" d="M95.3,285.3c0,0-28,27.3-28.7,46.7C66,351.3,81,375.3,81,375.3l39.7,44.7c0,0,39.4,31.2,59.3,40.5
		s72.8,28.2,72.8,28.2s43.2,0,45.2,0s40.7-6.1,40.7-6.1s41.4-15.3,44-16.6s35.3-22.7,37.3-23.3c2-0.7,39.9-49.3,39.9-49.3l9.4-22.1
		c0,0-45,26.3-75.7,37.7s-65.3,14.3-102,13.7c-36.7-0.7-78-12.7-107-35.7c-29.6-23.5-76.7-95.7-76.7-95.7S106.7,286,95.3,285.3z"/>
	<path class="st0" d="M490,249.5c1.3-29-1.6-58.8-14.3-85.1c-14.6-30.4-43.9-50.1-73-65.2c-30.3-15.7-63.1-26-97-30.3
		c-36.6-4.7-72.1-0.5-106.2,13.5c-18,7.4-35.2,16.5-52,26.5c-1.4,0.8-2.8,1.7-4.2,2.5c-7.3,7.4-15.8,13.6-22.6,21.5
		c-3.9,4.5-7.6,9-11.4,13.5c-0.2,3.3,2.5,6.7,5.6,7.5c4.2,1.2,7.7-1.5,9.2-5.2c1.9-4.9,5.3-9,9.3-12.6c0.3,0,0.6-0.1,0.9-0.1
		c6-1.3,11.5-3.8,17.1-6.1c2.2-0.9,5.1-2.3,8.1-3.1c-3.8,8.1-10.8,14.2-17.2,20.8c-4.1,4.2-6.5,9.7-10.6,13.9
		c-4.3,4.3-9.2,7.3-12.5,12.6c-0.5,0.8-0.8,1.5-1,2.3c-0.2,0.2-0.4,0.3-0.6,0.5c-4.1,3.4-2.7,8.2,0.7,10.7
		c13.7-8.8,28.7-15.3,43.8-21.2c8.6-3.3,17.3-6.2,25.9-9.5c4.9-1.9,9.8-3.9,14.8-5.3c18.7-6.9,37.9-12.3,57.7-14.4
		c24.2-2.6,48.7-1.3,72.4,4.3c10.9,2.5,21.7,5.8,31.2,11.9c8.4,5.4,15.3,12.9,20.6,21.3c13.8,21.8,15.7,47.9,15.3,69.9
		c0,0.9,0,2.2-0.1,5.7c-0.1,8.4,1,9.6,6.9,9.7c14.6,0.2,2.8,0,19.8,0.4c21.1,0.2,42.3,0.5,63.4-0.3
		C492.5,256.9,492.5,252.1,490,249.5z"/>
</g>
<g id="Layer_1">
	<g>
		<g>
			<g>
				<path d="M435.6,123.5l9.5,11.3l4.3-14.8c10.4-29.5,13-39.9,7.8-52.1c-5.2-11.3-14.8-21.7-26.9-27.8c-19.1-9.5-33.8-7.8-72,7.8
					L341,55.8l17.4,8.7C400.1,84.5,405.3,87.9,435.6,123.5z M424.4,56.7C433,61,440,68,443.4,75.8c1.7,5.2,1.7,8.7-3.5,25.2
					c-20.8-23.4-31.2-31.2-55.5-43.4C407,49.8,413.9,52.4,424.4,56.7z"/>
				<path d="M381,230.3c-1.7-26.9-12.1-50.3-31.2-68.6c-18.2-17.4-41.7-26-70.3-26c-28.6,0-51.2,8.7-70.3,26
					c-21.7,20.8-33.8,44.3-35.6,68.6l-0.9,9.5h210L381,230.3z M191.8,222.4c3.5-16.5,13-33,28.6-47.7s34.7-21.7,59-21.7
					c25.2,0,43.4,6.9,59,21.7c13.9,13,22.6,28.6,25.2,47.7L191.8,222.4L191.8,222.4z"/>
				<path d="M366.2,327.5l-2.6,4.3c-8.7,15.6-20.8,27.8-33,35.6c-13.9,7.8-29.5,12.1-46.9,12.1c-16.5,0-32.1-3.5-46-12.1
					c-13.9-8.7-25.2-20-33-33.8c-6.1-11.3-11.3-21.7-13-33h310.7l0.9-7.8c0-5.2,0-11.3,0-17.4c0-3.5,0-6.1,0-9.5
					c0-39.9-1.7-79-20-113.7C504.2,94.9,500.7,51.5,473,22.9C458.2,9,433.9,2.9,400.1,5.5c-32.1,1.7-66.8,11.3-105,27.8
					c-5.2-0.9-9.5-0.9-14.8-0.9c-52.1,0-90.3,16.5-144.1,49.5C95.5,107,54.7,140,26,211.2l13.9,9.5c26-22.6,54.7-44.3,82.4-62.5
					c-33,33.8-45.1,53.8-59,76.4l-2.6,4.3c-21.7,35.6-37.3,68.6-46.9,98.1C4.3,366.5,0,394.3,0,418.6c0,26,6.1,45.1,18.2,57.3
					c16.5,16.5,38.2,24.3,64.2,24.3c26.9,0,59-8.7,97.2-26c31.2,14.8,66,22.6,101.5,22.6c49.5,0,95.5-14.8,135.4-43.4
					c39.1-28.6,67.7-66.8,84.2-114.5l4.3-11.3L366.2,327.5L366.2,327.5z M405.3,438.5c-36.4,26.9-79,40.8-125,40.8
					c-34.7,0-67.7-7.8-98.1-22.6l-3.5-2.6l-3.5,1.7c-67.7,33-115.4,35.6-144.1,6.9c-9.5-7.8-13.9-23.4-13.9-44.3
					c0-22.6,4.3-48.6,13.9-77.2c8.7-27.8,24.3-59.9,45.1-93.7l2.6-4.3c15.6-24.3,28.6-46,72-88.5l10.4-10.4
					c9.5-10.4,14.8-16.5,18.2-19.1l-9.5-14.8c-33.8,15.6-73.8,41.7-110.2,71.2c25.2-42.5,55.5-66,85.9-85
					c50.3-30.4,86.8-46.9,134.5-46.9c5.2,0,10.4,0,15.6,0.9h2.6l2.6-0.9c36.4-16.5,70.3-26,100.7-27.8c28.6-1.7,48.6,2.6,59,13
					c23.4,23.4,25.2,62.5,5.2,114.5l-1.7,3.5l1.7,3.5c18.2,32.1,20,68.6,20,109.3c0,3.5,0,6.1,0,9.5c0,2.6,0,5.2,0,7.8H173.6v8.7
					c0,18.2,7.8,33.8,15.6,50.3c9.5,16.5,22.6,30.4,39.1,39.9c16.5,9.5,35.6,14.8,55.5,14.8s39.1-5.2,55.5-14.8
					c13.9-8.7,26-21.7,36.4-38.2H479C463.4,383,438.2,414.2,405.3,438.5z"/>
				<path d="M76.4,337l-6.9-19.1l-8.7,17.4C33,390.8,17.4,426.4,46,454.2c10.4,10.4,20.8,14.8,34.7,14.8c18.2,0,40.8-7.8,70.3-20.8
					l14.8-6.9l-13.9-8.7C107.6,405.6,93.7,384.7,76.4,337z M58.1,441.1c-15.6-14.8-13.9-33,9.5-80.7c13.9,33.8,28.6,54.7,61.6,76.4
					C88.5,454.2,72,455,58.1,441.1z"/>
			</g>
		</g>
	</g>
</g>
</svg>
