<?xml version="1.0" encoding="utf-8"?>
<!-- Generator: Adobe Illustrator 19.2.0, SVG Export Plug-In . SVG Version: 6.00 Build 0)  -->
<svg version="1.1" xmlns="http://www.w3.org/2000/svg" xmlns:xlink="http://www.w3.org/1999/xlink" x="0px" y="0px"
	 viewBox="0 0 512 512" style="enable-background:new 0 0 512 512;" xml:space="preserve">
<style type="text/css">
	.st0{fill:none;stroke:#4EB543;stroke-width:30;stroke-miterlimit:10;}
	.st1{fill:#4EB543;}
</style>
<g id="Слой_3">
	<circle class="st0" cx="256.2" cy="256.1" r="140.6"/>
	<circle class="st1" cx="256.2" cy="257.1" r="40"/>
</g>
<g id="Layer_1">
	<g>
		<g>
			<g>
				<path d="M512,289.8l0-67.5l-59.5-22.7c-4.2-14.7-10.1-28.9-17.7-42.5l26.1-58.2l-47.8-47.8l-58.2,26.1
					c-13.5-7.5-27.7-13.4-42.5-17.6L289.8,0h-67.5l-22.7,59.5c-14.8,4.2-29,10.2-42.5,17.6L98.9,51.1L51.1,98.9l26.1,58.2
					c-7.5,13.5-13.4,27.7-17.7,42.5L0,222.2v67.5l59.5,22.7c4.3,14.8,10.2,29,17.7,42.5l-26.1,58.2l47.8,47.7l58.2-26.1
					c13.5,7.5,27.7,13.4,42.5,17.6l22.7,59.5h67.5l22.7-59.5c14.7-4.2,29-10.2,42.5-17.6l58.2,26.1l47.8-47.7l-26.1-58.2
					c7.5-13.5,13.4-27.8,17.7-42.5L512,289.8z M435.8,303.2c-4.3,16.2-10.8,31.9-19.4,46.6l-2.4,4.1l24.7,55.2L409,438.8l-55.2-24.7
					l-4.1,2.4c-14.7,8.6-30.3,15.1-46.6,19.4l-4.6,1.2L277,493.5h-42L213.5,437l-4.6-1.2c-16.3-4.3-32-10.8-46.6-19.3l-4.1-2.4
					l-55.2,24.7l-29.7-29.7l24.7-55.2l-2.4-4.1c-8.6-14.6-15.1-30.3-19.4-46.6l-1.2-4.6L18.5,277v-42l56.4-21.5l1.2-4.6
					c4.3-16.3,10.8-32,19.4-46.6l2.4-4.1l-24.7-55.2l29.7-29.7l55.2,24.7l4.1-2.4c14.6-8.6,30.3-15.1,46.6-19.3l4.6-1.2L235,18.5h42
					L298.5,75l4.6,1.2c16.3,4.3,32,10.8,46.6,19.3l4.1,2.4L409,73.2l29.7,29.7l-24.7,55.2l2.4,4.1c8.6,14.7,15.1,30.4,19.4,46.6
					l1.2,4.6l56.5,21.5l0,42L437,298.5L435.8,303.2z"/>
				<path d="M173.6,295.8c3,6.1,6.6,12,10.9,17.3l14.5-11.6c-3.4-4.3-6.3-8.9-8.7-13.8L173.6,295.8z"/>
				<path d="M198.9,327.6c5.4,4.3,11.2,7.9,17.3,10.9l8-16.7c-4.9-2.4-9.6-5.3-13.8-8.7L198.9,327.6z"/>
				<path d="M190.2,224.4l-16.7-8c-3,6.2-5.2,12.7-6.7,19.4l18.1,4.1C186,234.5,187.8,229.3,190.2,224.4z"/>
				<path d="M239.6,184.8l-4.1-18c-6.7,1.5-13.2,3.8-19.3,6.8l8.1,16.7C229.1,187.9,234.3,186.1,239.6,184.8z"/>
				<path d="M338.3,216.1c-3-6.1-6.7-12-10.9-17.3l-14.4,11.6c3.4,4.3,6.4,8.9,8.7,13.8L338.3,216.1z"/>
				<path d="M239.7,327.2l-4.1,18c6.6,1.5,13.5,2.3,20.5,2.3c0,0,0,0,0,0l0.1-4.7L256,329C250.5,329,245,328.4,239.7,327.2z"/>
				<path d="M210.4,199l-11.6-14.4c-5.3,4.3-10.2,9.1-14.4,14.5l14.5,11.5C202.2,206.3,206.1,202.4,210.4,199z"/>
				<path d="M183,256.1l-18.5,0c0,6.9,0.8,13.7,2.3,20.3l18-4.1C183.6,267,183,261.6,183,256.1z"/>
				<path d="M321.9,287.5l16.7,8c3-6.2,5.2-12.7,6.7-19.4l-18.1-4C326,277.3,324.2,282.5,321.9,287.5z"/>
				<path d="M256,164.5h-0.2L256,183c5.4,0,10.9,0.6,16.1,1.8l4.1-18.1C269.6,165.2,262.8,164.5,256,164.5z"/>
				<path d="M329,255.8l18.5-0.1c0-6.9-0.8-13.7-2.3-20.3l-18,4.2C328.3,244.8,329,250.3,329,255.8z"/>
				<path d="M301.7,312.9l11.6,14.4c5.3-4.3,10.2-9.2,14.4-14.5l-14.5-11.5C309.8,305.6,306,309.5,301.7,312.9z"/>
				<path d="M272.5,327.1l4.2,18c6.7-1.5,13.2-3.8,19.3-6.8l-8.1-16.6C283,324.1,277.8,325.9,272.5,327.1z"/>
				<path d="M295.5,173.5l-8,16.7c4.9,2.4,9.6,5.3,13.9,8.7l11.5-14.5C307.5,180.1,301.7,176.4,295.5,173.5z"/>
				<path d="M256,115.1c-77.7,0-140.8,63.2-140.8,140.9c0,77.7,63.2,140.9,140.8,140.9c77.7,0,140.9-63.2,140.9-140.9
					C396.8,178.3,333.6,115.1,256,115.1z M256,378.4c-67.5,0-122.3-54.9-122.3-122.3c0-67.5,54.9-122.4,122.3-122.4
					c67.5,0,122.4,54.9,122.4,122.4C378.3,323.5,323.4,378.4,256,378.4z"/>
			</g>
		</g>
	</g>
</g>
</svg>
