<?xml version="1.0" encoding="utf-8"?>
<!-- Generator: Adobe Illustrator 19.2.0, SVG Export Plug-In . SVG Version: 6.00 Build 0)  -->
<svg version="1.1" xmlns="http://www.w3.org/2000/svg" xmlns:xlink="http://www.w3.org/1999/xlink" x="0px" y="0px"
	 viewBox="0 0 512 512" style="enable-background:new 0 0 512 512;" xml:space="preserve">
<style type="text/css">
	.st0{fill:#4EB543;}
</style>
<g id="Слой_3">
	<circle class="st0" cx="352.5" cy="159.5" r="35"/>
	<g>
		<path class="st0" d="M207.4,233c8.1,0,17,1.9,25.6,5.4l-2.7,2.6l-11,10.6l10.8,10.8l19.5,19.5l10.8,10.8l10.6-11l2.7-2.8
			c3,8,4.5,16.7,4.5,25.7c0,39.1-31.8,70.8-70.8,70.8c-39.1,0-70.8-31.8-70.8-70.8c0-19,7.4-37,20.8-50.5
			C170.8,240.5,188.5,233,207.4,233 M207.4,218c-47.4,0-85.8,39.2-85.8,86.6s38.4,85.8,85.8,85.8s85.8-38.4,85.8-85.8
			c0-18.9-5.7-36.6-16.1-50.8l-16.9,17.5l-19.5-19.5l17.4-16.8C244.2,225.4,225.5,218,207.4,218L207.4,218z"/>
	</g>
	<path class="st0" d="M293.2,272.1c-1.6-3.7-5-6.4-9.2-5.2c-3.5,1-6.8,5.5-5.2,9.2c3.2,7.7,6.8,15.7,6.7,24.2
		c-0.1,8.8-2.3,17.9-3.6,26.6c-1.2,8.2-2,16.6-6.5,23.7c-3.4,5.3-8.5,13.6-14.7,16c-1.7,0.7-3.2,1.8-4.2,3.1
		c-0.9,0.2-1.9,0.5-2.9,1.2c-17.8,12-40.3,11.6-60.9,11.1c-20.1-0.5-37.7-16.4-48.2-32.4c-11.5-17.6-17.3-39.2-14.5-60.2
		c1.5-10.8,5.4-21.1,11.7-30c5.9-8.4,13.7-13.5,22.2-18.8c2.6-1.6,5.1-3.4,7.3-5.6c1.9-1.9,3-3.6,5.7-4.3c6.5-1.8,13.2-2.6,19.8-3
		c6.8-0.4,13.7-0.5,20.6-0.4c6,0,12.1-0.4,17.2,3.2c3.3,2.4,8.3,0.5,10.3-2.7c2.2-3.8,0.6-7.9-2.7-10.3c-10.5-7.6-26.6-5.5-38.8-5.1
		c-6.9,0.2-13.8,0.8-20.6,1.8c-6.6,1-13.7,2.2-18.8,6.8c-1.9,1.7-3.4,3.8-5.5,5.3c-2.6,1.9-5.6,3.3-8.4,5.1
		c-5.3,3.3-10.2,7.3-14.4,11.8c-8.1,8.7-14,19.3-17.5,30.7c-7.6,24.9-3.4,52.7,8.7,75.5c10.6,19.9,29.7,39.8,52.1,46
		c6.9,1.9,14.1,1.8,21.2,1.8c7.1,0,14.2,0,21.2-0.7c14.1-1.3,28-4.6,39.8-12.5c1.1-0.7,1.9-1.6,2.4-2.5c0.3-0.1,0.7-0.1,1-0.3
		c9-3.6,14.5-10.5,20.2-18.1c6.5-8.7,9.3-17.8,10.9-28.4c1.6-10.5,3.8-21.1,4.5-31.7C301,292,297.3,282,293.2,272.1z"/>
	<path class="st0" d="M382.3,459.5c-14.8,0-14.8,23,0,23C397.1,482.5,397.2,459.5,382.3,459.5z"/>
	<path class="st0" d="M481,342.2c-14.8,0-14.8,23,0,23C495.8,365.2,495.8,342.2,481,342.2z"/>
	<path class="st0" d="M99.9,24.9c-2.5-1.7-5.8-2.6-8.9-2.6c-4.3,0-7.7,1.7-10.9,4.4c-1.7,1.5-2.8,4.1-3.2,6.5
		c-2,4.4-2.2,9.2,0.3,13.5c2,3.5,5.2,5.9,9,7.3c7.1,2.7,15.5-1.4,19-7.8C109.2,38.8,107,29.6,99.9,24.9z"/>
	<path class="st0" d="M13.7,174.8c-14.8,0-14.8,23,0,23C28.5,197.8,28.5,174.8,13.7,174.8z"/>
</g>
<g id="Layer_1">
	<g>
		<g>
			<path d="M207.4,266.5c-21,0-38.1,17.1-38.1,38.1c0,21,17.1,38.1,38.1,38.1s38.1-17.1,38.1-38.1
				C245.5,283.6,228.4,266.5,207.4,266.5z M207.4,327.5c-12.6,0-22.9-10.3-22.9-22.9c0-12.6,10.3-22.9,22.9-22.9
				s22.9,10.3,22.9,22.9S220,327.5,207.4,327.5z"/>
		</g>
	</g>
	<g>
		<g>
			<path d="M512,188.5v-58h-33.9c-3.2-13.9-8.7-27.1-16.3-39.3l24-24l-41-41l-24,24c-12.2-7.6-25.3-13.1-39.3-16.3V0h-58v33.9
				c-13.9,3.2-27.1,8.7-39.3,16.3l-24-24l-41,41l24,24c-1.2,2-2.4,4-3.5,6h-68v44.1c-19.4,4.2-37.6,11.8-54.4,22.5L86,132.7
				l-50.6,50.6l31.2,31.2c-10.8,16.7-18.3,35-22.5,54.4H0v71.5h44.1c4.2,19.4,11.8,37.6,22.5,54.4L35.5,426L86,476.5l31.2-31.2
				c16.7,10.8,35,18.3,54.4,22.5V512h71.5v-44.1c19.4-4.2,37.6-11.8,54.4-22.5l31.2,31.2l50.6-50.6l-31.2-31.2
				c10.8-16.7,18.3-35,22.5-54.4h44.1v-68c2-1.1,4-2.3,6-3.5l24,24l41-41l-24-24c7.6-12.2,13.1-25.3,16.3-39.3L512,188.5L512,188.5z
				 M399.5,284.1v41.1H358l-1.1,6.3c-3.9,21.6-12.2,41.8-24.8,59.9l-3.6,5.2l29.4,29.4L328.7,455l-29.4-29.4l-5.2,3.6
				c-18.1,12.6-38.3,21-59.9,24.8l-6.3,1.1v41.5h-41.1v-41.5l-6.3-1.1c-21.6-3.9-41.8-12.2-59.9-24.8l-5.2-3.6L86,455L57,426
				l29.4-29.4l-3.6-5.2c-12.6-18.1-21-38.3-24.8-59.9l-1.1-6.3H15.2v-41.1h41.5l1.1-6.3c3.9-21.6,12.2-41.8,24.8-59.9l3.6-5.2
				L57,183.3L86,154.2l29.4,29.4l5.2-3.6c18.1-12.6,38.3-21,59.9-24.8l6.3-1.1v-41.5h41.1v14c-0.4,1.3-0.7,2.7-1,4H193v58h33.9
				c1.2,5.2,2.7,10.2,4.5,15.1c-7.7-1.8-15.7-2.8-24-2.8c-57.2,0-103.8,46.5-103.8,103.8s46.6,103.8,103.8,103.8
				s103.8-46.5,103.8-103.8c0-8.3-1-16.3-2.8-24c4.9,1.8,10,3.3,15.1,4.5V319h58v-33.9c1.4-0.3,2.7-0.7,4-1L399.5,284.1L399.5,284.1
				L399.5,284.1z M239.9,222.3c1,1.9,2.1,3.7,3.3,5.5l-24,24l41,41l24-24c1.8,1.1,3.7,2.2,5.5,3.3c4,10.1,6.2,21.1,6.2,32.6
				c0,48.8-39.7,88.6-88.6,88.6c-48.8,0-88.6-39.7-88.6-88.6s39.7-88.6,88.6-88.6C218.9,216.1,229.8,218.3,239.9,222.3z
				 M464.4,179.6c-2.9,16.2-9.1,31.3-18.6,44.8l-3.6,5.2l22.1,22.1l-19.5,19.5l-22.1-22.1l-5.2,3.6c-13.6,9.5-28.6,15.7-44.8,18.6
				l-6.3,1.1v31.3h-27.6v-31.3l-6.3-1.1c-16.2-2.9-31.3-9.1-44.8-18.6l-5.2-3.6l-22.1,22.1l-19.5-19.5l22.1-22.1l-3.6-5.2
				c-9.5-13.6-15.7-28.6-18.6-44.8l-1.1-6.3h-31.3v-27.6h31.3l1.1-6.3c2.9-16.2,9.1-31.3,18.6-44.8l3.6-5.2l-22.1-22.1l19.5-19.5
				l22.1,22.1l5.2-3.6c13.6-9.5,28.6-15.7,44.8-18.6l6.3-1.1V15.2h27.6v31.3l6.3,1.1c16.2,2.9,31.3,9.1,44.8,18.6l5.2,3.6l22.1-22.1
				l19.5,19.5l-22.1,22.1l3.6,5.2c9.5,13.6,15.7,28.6,18.6,44.8l1.1,6.3h31.3v27.6h-31.3L464.4,179.6z"/>
		</g>
	</g>
	<g>
		<g>
			<path d="M352.5,78.8c-44.5,0-80.7,36.2-80.7,80.7s36.2,80.7,80.7,80.7s80.7-36.2,80.7-80.7C433.2,115,397,78.8,352.5,78.8z
				 M352.5,225c-36.1,0-65.5-29.4-65.5-65.5c0-36.1,29.4-65.5,65.5-65.5s65.5,29.4,65.5,65.5C418,195.6,388.6,225,352.5,225z"/>
		</g>
	</g>
	<g>
		<g>
			<rect x="104.7" y="91.5" width="13" height="15.2"/>
		</g>
	</g>
	<g>
		<g>
			<rect x="476.2" y="475.1" width="13" height="15.2"/>
		</g>
	</g>
	<g>
		<g>
			<rect x="443" y="419.6" width="13" height="15.2"/>
		</g>
	</g>
	<g>
		<g>
			<rect x="424.7" y="348.4" width="13" height="15.2"/>
		</g>
	</g>
	<g>
		<g>
			<rect x="170.4" y="44.2" width="13" height="15.2"/>
		</g>
	</g>
	<g>
		<g>
			<rect x="16.3" y="104.8" width="13" height="15.2"/>
		</g>
	</g>
</g>
</svg>
