<?xml version="1.0" encoding="utf-8"?>
<!-- Generator: Adobe Illustrator 19.2.0, SVG Export Plug-In . SVG Version: 6.00 Build 0)  -->
<svg version="1.1" xmlns="http://www.w3.org/2000/svg" xmlns:xlink="http://www.w3.org/1999/xlink" x="0px" y="0px"
	 viewBox="0 0 512 512" style="enable-background:new 0 0 512 512;" xml:space="preserve">
<style type="text/css">
	.st0{fill:#4EB543;}
	.st1{fill:none;stroke:#4EB543;stroke-width:16;stroke-miterlimit:10;}
</style>
<g id="Слой_3">
	<path class="st0" d="M479,470.5c-2.9,0-5.3,0.9-7.1,2.4c-7.9,5.5-5.8,21.1,6.4,21.1c2.9,0,5.3-0.9,7.1-2.4
		C493.3,486.2,491.2,470.5,479,470.5z"/>
	<path class="st0" d="M461,346.5c-14.8,0-14.8,23,0,23C475.8,369.5,475.8,346.5,461,346.5z"/>
	<path class="st0" d="M395.7,378.1c-1.6-3.6-4.9-6.3-10-6.3c-10,0-13.3,10.6-9.7,17.4c1.6,3.6,4.9,6.3,10,6.3
		C396,395.5,399.3,384.9,395.7,378.1z"/>
	<path class="st0" d="M408,48.5c-14.8,0-14.8,23,0,23C422.8,71.5,422.8,48.5,408,48.5z"/>
	<path class="st0" d="M95,330.5c-14.8,0-14.8,23,0,23C109.8,353.5,109.8,330.5,95,330.5z"/>
	<path class="st0" d="M24,484.5c-14.8,0-14.8,23,0,23C38.8,507.5,38.8,484.5,24,484.5z"/>
	<circle class="st0" cx="155.8" cy="154.5" r="31.3"/>
	<circle class="st1" cx="225.5" cy="407.4" r="50.9"/>
	<g>
		<path class="st0" d="M408,211.4c10.8,0,19.5,8.7,19.5,19.5c0,10.8-8.7,19.5-19.5,19.5s-19.5-8.7-19.5-19.5
			C388.5,220.2,397.2,211.4,408,211.4 M408,195.4c-19.6,0-35.5,15.9-35.5,35.5c0,19.6,15.9,35.5,35.5,35.5s35.5-15.9,35.5-35.5
			C443.5,211.4,427.6,195.4,408,195.4L408,195.4z"/>
	</g>
</g>
<g id="Layer_1">
	<g>
		<g>
			<path d="M155.8,68.8c-47.3,0-85.8,38.5-85.8,85.8s38.5,85.8,85.8,85.8s85.8-38.5,85.8-85.8S203.1,68.8,155.8,68.8z M155.8,225.5
				c-39.1,0-71-31.9-71-71s31.8-71,71-71s71,31.8,71,71C226.8,193.7,194.9,225.5,155.8,225.5z"/>
		</g>
	</g>
	<g>
		<g>
			<path d="M310.3,182.7v-56.2h-32.9c-3.1-13.5-8.4-26.2-15.8-38l23.3-23.3l-39.8-39.8l-23.3,23.3c-11.8-7.4-24.5-12.7-38-15.8V0
				h-56.2v32.9c-13.5,3.1-26.2,8.4-38,15.8L66.4,25.4L26.6,65.2l23.3,23.3c-7.4,11.8-12.7,24.5-15.8,38H1.2v56.2h32.9
				c3.1,13.5,8.4,26.2,15.8,38l-23.3,23.3l39.8,39.8l23.3-23.3c11.8,7.4,24.5,12.7,38,15.8v32.9h56.2v-32.9
				c13.5-3.1,26.2-8.4,38-15.8l23.3,23.3l39.8-39.8l-23.3-23.3c7.4-11.8,12.7-24.5,15.8-38H310.3z M264.2,174
				c-2.8,15.7-8.9,30.3-18,43.4l-3.5,5.1l21.4,21.4l-18.9,18.9l-21.4-21.4l-5.1,3.5c-13.1,9.2-27.7,15.2-43.4,18l-6.1,1.1v30.3
				h-26.7V264l-6.1-1.1c-15.7-2.8-30.3-8.9-43.4-18l-5.1-3.5l-21.4,21.4l-18.9-18.9l21.4-21.4l-3.5-5.1c-9.2-13.1-15.2-27.7-18-43.4
				l-1.1-6.1H16v-26.7h30.3l1.1-6.1c2.8-15.7,8.9-30.3,18-43.4l3.5-5.1L47.5,65.2l18.9-18.9l21.4,21.4l5.1-3.5
				c13.1-9.2,27.7-15.2,43.4-18l6.1-1.1V14.8h26.7v30.3l6.1,1.1c15.7,2.8,30.3,8.9,43.4,18l5.1,3.5l21.4-21.4l18.9,18.9l-21.4,21.4
				l3.5,5.1c9.2,13.1,15.2,27.7,18,43.4l1.1,6.1h30.3v26.7h-30.3L264.2,174z"/>
		</g>
	</g>
	<g>
		<g>
			<path d="M408.7,185.8c-24.9,0-45.2,20.3-45.2,45.2c0,24.9,20.3,45.2,45.2,45.2c24.9,0,45.2-20.3,45.2-45.2
				C453.8,206.1,433.6,185.8,408.7,185.8z M408.7,261.3c-16.8,0-30.4-13.6-30.4-30.4s13.6-30.4,30.4-30.4S439,214.2,439,231
				S425.4,261.3,408.7,261.3z"/>
		</g>
	</g>
	<g>
		<g>
			<path d="M489,210.2c-1.9-7.5-4.9-14.7-8.9-21.4l15.4-15.4l-29.3-29.3l-15.4,15.4c-6.7-4-13.9-7-21.4-8.9v-21.7h-41.5v21.7
				c-7.5,1.9-14.7,4.9-21.4,8.9l-15.4-15.4l-29.3,29.3l15.4,15.4c-4,6.7-7,13.9-8.9,21.4h-21.7v41.5h21.7c1.9,7.5,4.9,14.7,8.9,21.4
				l-15.4,15.4l29.3,29.3l15.4-15.4c6.7,4,13.9,7,21.4,8.9v21.7h41.5v-21.7c7.5-1.9,14.7-4.9,21.4-8.9l15.4,15.4l29.3-29.3
				l-15.4-15.4c4-6.7,7-13.9,8.9-21.4h21.7v0v-41.5L489,210.2L489,210.2z M496,236.9h-19.1v0l-1.1,6.1c-1.7,9.7-5.5,18.8-11.2,26.9
				l-3.5,5.1l13.5,13.5l-8.4,8.4l-13.5-13.5l-5.1,3.5c-8.1,5.7-17.2,9.4-26.9,11.2l-6.1,1.1v19.1h-11.9v-19.1l-6.1-1.1
				c-9.7-1.7-18.8-5.5-26.9-11.2l-5.1-3.5l-13.5,13.5l-8.4-8.4l13.5-13.5l-3.5-5.1c-5.7-8.1-9.4-17.2-11.2-26.9l-1.1-6.1h-19.1V225
				h19.1l1.1-6.1c1.7-9.7,5.5-18.8,11.2-26.9l3.5-5.1l-13.5-13.5l8.4-8.4l13.5,13.5l5.1-3.5c8.1-5.7,17.2-9.4,26.9-11.2l6.1-1.1
				v-19.1h11.9v19.1l6.1,1.1c9.7,1.7,18.8,5.5,26.9,11.2l5.1,3.5l13.5-13.5l8.4,8.4l-13.5,13.5l3.5,5.1c5.7,8.1,9.4,17.2,11.2,26.9
				l1.1,6.1H496L496,236.9L496,236.9z"/>
		</g>
	</g>
	<g>
		<g>
			<path d="M225.5,359.9c-26.2,0-47.5,21.3-47.5,47.5c0,26.2,21.3,47.5,47.5,47.5s47.5-21.3,47.5-47.5S251.7,359.9,225.5,359.9z
				 M225.5,441.1c-18.6,0-33.7-15.1-33.7-33.7s15.1-33.7,33.7-33.7c18.6,0,33.7,15.1,33.7,33.7C259.2,426,244.1,441.1,225.5,441.1z"
				/>
		</g>
	</g>
	<g>
		<g>
			<path d="M330.1,428.5v-42.2h-22.2c-2-7.8-5.1-15.3-9.2-22.2l15.7-15.7l-29.8-29.8l-15.7,15.7c-7-4.1-14.4-7.2-22.2-9.2v-22.2
				h-42.2v22.2c-7.8,2-15.3,5.1-22.2,9.2l-15.7-15.7l-29.8,29.8l15.7,15.7c-4.1,7-7.2,14.4-9.2,22.2h-22.2v42.2h22.2
				c2,7.8,5.1,15.3,9.2,22.2l-15.7,15.7l29.8,29.8l15.7-15.7c7,4.1,14.4,7.2,22.2,9.2V512h42.2v-22.2c7.8-2,15.3-5.1,22.2-9.2
				l15.7,15.7l29.8-29.8l-15.7-15.7c4.1-7,7.2-14.4,9.2-22.2L330.1,428.5L330.1,428.5z M295.7,413.7l-1.1,6.1
				c-1.8,10-5.6,19.3-11.5,27.7l-3.5,5.1l13.9,13.9l-8.9,8.9l-13.9-13.9l-5.1,3.5c-8.4,5.8-17.7,9.7-27.7,11.5l-6.1,1.1v19.6h-12.6
				v-19.6l-6.1-1.1c-10-1.8-19.3-5.6-27.7-11.5l-5.1-3.5l-13.9,13.9l-8.9-8.9l13.9-13.9l-3.5-5.1c-5.8-8.4-9.7-17.7-11.5-27.7
				l-1.1-6.1h-19.6v-12.6h19.6l1.1-6.1c1.8-10,5.6-19.3,11.5-27.7l3.5-5.1l-13.9-13.9l8.9-8.9l13.9,13.9l5.1-3.5
				c8.4-5.8,17.7-9.7,27.7-11.5l6.1-1.1v-19.6h12.6v19.6l6.1,1.1c10,1.8,19.3,5.6,27.7,11.5l5.1,3.5l13.9-13.9l8.9,8.9l-13.9,13.9
				l3.5,5.1c5.8,8.4,9.7,17.7,11.5,27.7l1.1,6.1h19.6v12.6L295.7,413.7L295.7,413.7z"/>
		</g>
	</g>
	<g>
		<g>
			<rect x="314.7" y="20.8" width="14.8" height="16.1"/>
		</g>
	</g>
	<g>
		<g>
			<rect x="433.3" y="7.4" width="14.8" height="16.1"/>
		</g>
	</g>
	<g>
		<g>
			<rect x="348.8" y="94" width="14.8" height="16.1"/>
		</g>
	</g>
	<g>
		<g>
			<rect x="486.7" y="60" width="14.8" height="16.1"/>
		</g>
	</g>
	<g>
		<g>
			<rect x="362.3" y="458.2" width="14.8" height="16.1"/>
		</g>
	</g>
	<g>
		<g>
			<rect x="437.8" y="419.3" width="14.8" height="16.1"/>
		</g>
	</g>
	<g>
		<g>
			<rect x="43.6" y="431.4" width="14.8" height="16.1"/>
		</g>
	</g>
	<g>
		<g>
			<rect x="32.6" y="341.4" width="14.8" height="16.1"/>
		</g>
	</g>
	<g>
		<g>
			<rect x="96" y="450.1" width="14.8" height="16.1"/>
		</g>
	</g>
</g>
</svg>
