<?xml version="1.0" encoding="utf-8"?>
<!-- Generator: Adobe Illustrator 19.2.0, SVG Export Plug-In . SVG Version: 6.00 Build 0)  -->
<svg version="1.1" xmlns="http://www.w3.org/2000/svg" xmlns:xlink="http://www.w3.org/1999/xlink" x="0px" y="0px"
	 viewBox="0 0 512 512" style="enable-background:new 0 0 512 512;" xml:space="preserve">
<style type="text/css">
	.st0{fill:#4EB543;}
</style>
<g id="Слой_3">
	<path class="st0" d="M375,426H137.5c-1.3,0-14.1,0.4-20.1,0.3c-1.5,0-2.6-1.5-2.3-3l0,0c2-5.2,5.4-9.7,9.8-13.2
		c2.5-2,4.7-3.4,6.5-4.4c3.2-1.8,6.9-2.8,10.6-2.8l229.2,0c2.8,0,5.6,0.8,7.9,2.3c1.2,0.7,2.5,1.6,3.8,2.6
		c5.1,3.7,9.1,8.7,11.7,14.4l0,0c0.8,1.8-0.4,3.8-2.3,3.9C386.6,426.5,376.2,426,375,426z"/>
	<path class="st0" d="M186,162.4c-7.6-11.7-20.7-18.9-32.3-26.1c-24.9-15.6-50.5-30.7-76.6-44.3c-12.5-6.5-26.2-11.4-39.5-16
		c-5.8-2-12.6-2.6-18.1,0.6c-7.8,4.6-9.9,14.7-5.8,22.5c3.2,6,9.4,9.2,15,12.6c4.2,2.6,8.4,5.2,12.5,7.7c-4.8,1.7-7.2,6.4-7.1,11.1
		c-0.1,1.4,0,2.8,0.3,4.2c0.4,0.9,0.8,1.8,1.2,2.7c1,1.7,2.4,3.1,4.1,4.1c0.1,0,0.2,0.1,0.3,0.1c0.8,0.8,1.6,1.4,2.7,1.9
		c0.4,0.4,0.9,0.7,1.5,1c18.4,11.1,37.2,21.5,56,32c18.3,10.3,36.6,20.5,55.9,28.8c3.8,1.6,8,1.8,11.3,0.1c1.7,1.2,3.9,2,6.5,2
		c5.8,0,9.3-3.5,10.6-7.8C193.4,188.9,193.7,174.1,186,162.4z"/>
	<path class="st0" d="M328.7,162.4c7.6-11.7,20.7-18.9,32.3-26.1c24.9-15.6,50.5-30.7,76.6-44.3c12.5-6.5,26.2-11.4,39.5-16
		c5.8-2,12.6-2.6,18.1,0.6c7.8,4.6,9.9,14.7,5.8,22.5c-3.2,6-9.4,9.2-15,12.6c-4.2,2.6-8.4,5.2-12.5,7.7c4.8,1.7,7.2,6.4,7.1,11.1
		c0.1,1.4,0,2.8-0.3,4.2c-0.4,0.9-0.8,1.8-1.2,2.7c-1,1.7-2.4,3.1-4.1,4.1c-0.1,0-0.2,0.1-0.3,0.1c-0.8,0.8-1.6,1.4-2.7,1.9
		c-0.4,0.4-0.9,0.7-1.5,1c-18.4,11.1-37.2,21.5-56,32c-18.3,10.3-36.6,20.5-55.9,28.8c-3.8,1.6-8,1.8-11.3,0.1c-1.7,1.2-3.9,2-6.5,2
		c-5.8,0-9.3-3.5-10.6-7.8C321.3,188.9,321.1,174.1,328.7,162.4z"/>
</g>
<g id="Layer_1">
	<g>
		<g>
			<path d="M508.4,77.4c-7.7-14.2-25.5-19.4-39.7-11.7L338.1,137c-11.8,6.5-20.5,17.1-24.3,30.1c-3.2,11-2.6,22.5,1.6,33H196.6
				c4.2-10.5,4.8-22,1.6-33c-3.8-12.9-12.4-23.6-24.3-30.1L43.2,65.7C29.1,58,11.3,63.2,3.6,77.4c-7.7,14.2-2.5,31.9,11.7,39.7
				l14.5,7.9c-3.7,2.5-6.9,5.9-9.2,10.1c-3.7,6.9-4.6,14.8-2.4,22.2c2.2,7.5,7.2,13.7,14,17.4l14.5,7.9c-3.8,2.6-6.9,6-9.2,10.1
				c-3.7,6.9-4.6,14.8-2.4,22.2c2.2,7.5,7.2,13.7,14,17.4l39.4,21.5v169c0,14.8,12.1,26.9,26.9,26.9h281c14.8,0,26.9-12.1,26.9-26.9
				v-169l39.4-21.5c6.9-3.7,11.8-9.9,14-17.4c2.2-7.5,1.4-15.4-2.4-22.2c-2.2-4.1-5.4-7.6-9.2-10.1l14.5-7.9
				c6.9-3.7,11.8-9.9,14-17.4c2.2-7.5,1.4-15.4-2.4-22.2c-2.2-4.1-5.4-7.6-9.2-10.1l14.5-7.9c6.9-3.7,11.8-9.9,14-17.4
				C513,92.1,512.2,84.2,508.4,77.4z M373.8,216L256,324.7L138.2,216H373.8z M220.5,313.7l-116,71.4V226.9c0-5.8,4.5-10.5,10.2-10.9
				L220.5,313.7z M88.6,226.9v8.8l-31.8-17.3c-3.1-1.7-5.4-4.5-6.4-7.9c-1-3.4-0.6-7,1.1-10.1c1.7-3.1,4.5-5.4,7.9-6.4
				c3.4-1,7-0.6,10.1,1.1l0,0l10.4,5.8c1.2,0.7,2.6,1,3.9,1c2.8,0,5.5-1.5,7-4.1c2.1-3.8,0.7-8.7-3.1-10.8l-10.4-5.8c0,0,0,0,0,0
				c0,0,0,0,0,0l-37.3-20.4c-3.1-1.7-5.4-4.5-6.4-7.9s-0.6-7,1.1-10.1c3.5-6.4,11.6-8.8,18-5.3l0,0c0,0,0.1,0,0.1,0.1
				c0,0,0.1,0,0.1,0.1l50.8,25.6c1.1,0.6,2.4,0.9,3.6,0.9c2.9,0,5.7-1.6,7.1-4.4c2-3.9,0.4-8.7-3.5-10.7l-50.7-25.5l-37.2-20.3
				c-6.4-3.5-8.8-11.6-5.3-18c3.5-6.4,11.6-8.8,18-5.3L166.2,151c8.1,4.4,14,11.7,16.6,20.6c2.6,8.9,1.6,18.2-2.8,26.3l-1.2,2.2
				h-63.3C100.6,200,88.6,212.1,88.6,226.9z M407.5,422.9c0,6-4.9,11-11,11h-281c-6,0-11-4.9-11-11v-19.1l128.2-78.9l17.9,16.5
				c1.5,1.4,3.5,2.1,5.4,2.1s3.9-0.7,5.4-2.1l17.9-16.5l27.7,17c3.1,1.9,7.2,1.5,9.8-1.2c3.6-3.6,2.9-9.7-1.5-12.4l-23.8-14.7
				L397.2,216c5.7,0.4,10.2,5.1,10.2,10.9v158.1L355.3,353c-3.1-1.9-7.2-1.5-9.8,1.2c-3.6,3.6-2.9,9.7,1.5,12.4l60.5,37.3
				L407.5,422.9L407.5,422.9z M495.5,95.1c-1,3.4-3.3,6.2-6.4,7.9l-37.2,20.3l-50.7,25.5c-3.9,2-5.5,6.8-3.5,10.7
				c1.4,2.8,4.2,4.4,7.1,4.4c1.2,0,2.4-0.3,3.6-0.9l50.8-25.6c0,0,0.1,0,0.1-0.1c0,0,0.1,0,0.1-0.1c6.4-3.5,14.5-1.1,18,5.3
				c1.7,3.1,2.1,6.7,1.1,10.1c-1,3.4-3.3,6.2-6.4,7.9l-37.3,20.3c0,0,0,0,0,0c0,0,0,0,0,0c0,0,0,0,0,0l-10.4,5.8
				c-3.9,2.1-5.2,7-3.1,10.8c1.5,2.6,4.2,4.1,7,4.1c1.3,0,2.6-0.3,3.9-1l10.4-5.8c0,0,0,0,0,0c3.1-1.7,6.7-2.1,10.1-1.1
				s6.2,3.3,7.9,6.4c1.7,3.1,2.1,6.7,1.1,10.1c-1,3.4-3.3,6.2-6.4,7.9l-31.8,17.3v-8.8c0-14.8-12.1-26.9-26.9-26.9h-63.3l-1.2-2.2
				c-4.4-8.1-5.4-17.4-2.8-26.3s8.5-16.2,16.6-20.6l130.6-71.3c6.4-3.5,14.5-1.1,18,5.3C496.1,88.1,496.5,91.7,495.5,95.1z"/>
		</g>
	</g>
</g>
</svg>
