<?xml version="1.0" encoding="utf-8"?>
<!-- Generator: Adobe Illustrator 19.2.0, SVG Export Plug-In . SVG Version: 6.00 Build 0)  -->
<svg version="1.1" xmlns="http://www.w3.org/2000/svg" xmlns:xlink="http://www.w3.org/1999/xlink" x="0px" y="0px"
	 viewBox="0 0 512 512" style="enable-background:new 0 0 512 512;" xml:space="preserve">
<style type="text/css">
	.st0{fill:#4EB543;}
</style>
<g id="Слой_3">
	<path class="st0" d="M247.6,442.1V327.7c0,0-3.2-0.6-7.3-1.4c0.1-2,0.2-3.9,0.4-5.9c-13.3-3.7-25.9-9.5-37.3-17.4
		c-12.5-8.7-19-22.8-22-37.3c-3.4-16-4-34.8-0.2-50.7c3-12.9,9.9-23.8,19.6-32.9c1.1-1,2.1-2,3.3-2.9c8.9-5.5,18.7-11.2,18.7-11.2
		l15.2-4.5c3,0.2,6.2-0.6,8.6-2.5V73.9c0.2-3.1,0.2-6.2,0.1-9.4c0-0.8,0-1.6,0.1-2.3c-0.1-0.1-0.2-0.2-0.2-0.3v-1.9h-41.1
		c-1.9,1.9-3.1,4.5-3.3,7.2c-0.2,0.5-0.3,0.9-0.4,1.5c-4.7,20.1-17.9,37-31.8,51.8c-13.3,14.2-28.9,26.9-46.9,34.5
		c-1.9,0.5-3.6,1.5-4.9,2.8c-0.7,0.6-1.3,1.2-1.9,1.9c0,0.1,0,0.3,0,0.4c0,0.1,0,0.1,0,0.2c-1,1.7-1.6,3.7-1.8,5.8
		c-0.8,12-1,24.1-0.5,36.1c-0.3,4.4-0.3,8.7,0.1,13.1c0,0.6,0,1.2-0.1,1.8c-0.2,8,0.1,16,0.6,23.9c1.4,14.8,3.7,29.5,8.2,43.7
		c4.2,20.4,12.9,39.7,23.9,57.3c3.7,5.9,7.7,11.7,11.9,17.3c8.9,13.6,18.9,26.5,30.3,38c11.8,11.9,24.7,22.6,37.8,33
		c6.3,5,13.4,9.1,21,11.8L247.6,442.1z"/>
</g>
<g id="Layer_1">
	<g>
		<g>
			<g>
				<path d="M453.7,103c-52,0-94.4-42.4-94.4-94.4V0H152.7v8.6c0,52.1-42.4,94.4-94.4,94.4h-8.6V225c0,128.8,81.8,243.8,203.5,286
					l2.8,1l2.8-1c121.7-42.2,203.5-157.2,203.5-286V103H453.7z M445.2,225c0,120.6-75.9,228.2-189.1,268.8
					C142.7,453.2,66.9,345.6,66.9,225V119.8c54.7-4.2,98.5-48,102.7-102.6h173c4.2,54.7,47.9,98.5,102.6,102.6L445.2,225L445.2,225z
					"/>
				<path d="M329.2,40.6l-1.7-6.4H184.5l-1.7,6.4c-11.7,45.4-47.1,80.8-92.5,92.5l-6.4,1.7V225c0,110.5,66.3,208.4,168.9,249.3
					l3.2,1.3l3.2-1.3C361.8,433.4,428,335.5,428,225v-90.2l-6.4-1.7C376.3,121.4,340.8,86,329.2,40.6z M410.9,225
					c0,102.3-60.7,193.1-154.9,232.2C161.8,418.1,101.1,327.3,101.1,225v-77.1c46.2-14.2,82.4-50.4,96.6-96.6h116.7
					c14.2,46.2,50.4,82.4,96.5,96.6V225z"/>
				<polygon points="245.5,257.7 219.3,231.5 207.2,243.6 245.5,281.9 304.8,222.6 292.7,210.5 				"/>
				<path d="M256,154.8c-48.8,0-88.4,39.7-88.4,88.4s39.7,88.4,88.4,88.4s88.4-39.7,88.4-88.4S304.8,154.8,256,154.8z M256,314.5
					c-39.3,0-71.3-32-71.3-71.3c0-39.3,32-71.3,71.3-71.3s71.3,32,71.3,71.3C327.3,282.5,295.3,314.5,256,314.5z"/>
			</g>
		</g>
	</g>
</g>
</svg>
