<?xml version="1.0" encoding="utf-8"?>
<!-- Generator: Adobe Illustrator 19.2.0, SVG Export Plug-In . SVG Version: 6.00 Build 0)  -->
<svg version="1.1" xmlns="http://www.w3.org/2000/svg" xmlns:xlink="http://www.w3.org/1999/xlink" x="0px" y="0px"
	 viewBox="0 0 512 512" style="enable-background:new 0 0 512 512;" xml:space="preserve">
<style type="text/css">
	.st0{fill:#4EB543;}
</style>
<g id="Слой_3">
	<path class="st0" d="M264.5,415.5c0.3-1.5,0.7-3,1.1-4.5c1.3-0.8,2.3-2.1,2.4-4.1c0.1-5.2,1.1-16.2-5.3-18.3
		c-0.7-0.2-1.3-0.3-1.9-0.3c-1.7-4.1-8.1-3.7-9.4,0.7c-0.1,0.2-0.1,0.4-0.2,0.7c-2.8,0.2-5.8,2.6-5.1,6.2c0.5,2.8,1.1,5.6,1.6,8.3
		c0.9,4.5,6.9,4.5,9,1.3c0.1,0,0.2,0,0.3,0c-0.7,3.6-1.6,7-2.3,10.5c0,0-0.1,0-0.1,0c-6.1-0.1-8.4,7.2-9.3,12.4
		c-2.5,4.8,0.1,10.5,6,11.4c1.9,0.3,3.9,0.1,5.7-0.6c3.1,2.9,7.7,1.7,9.8-1.7C271.2,430.7,269,421.6,264.5,415.5z"/>
	<path class="st0" d="M336.1,341.4c-0.5-1.7-1.9-3-3.5-3.5c-1.8-1.5-4.6-2-6.9-0.2c-9.7,7.9-19.2,16.1-28.4,24.5
		c-4.4,4-8.7,8.1-12.9,12.3c-2.3,2.2-4.6,4.4-6.4,6.8c-2,1.4-3.7,3.3-4.8,5.5c-0.9,2-0.9,4.5,0.8,6.1c1.1,1,2.5,1.5,4,1.4
		c3.6,4.5,7.8,7.6,13.2,9.8c2.5,1,5.5-1.1,6.2-3.5c0.9-3,2-5.8,3.5-8.5c1.8,0.2,3.6-0.5,4.6-2.3c4.2-7.8,8.7-14.6,14.7-21
		c3.5-3.7,6.7-7.4,9.3-11.6c0.6-0.7,1.2-1.5,1.8-2.2C334.7,350.9,337.6,346.9,336.1,341.4z"/>
	<path class="st0" d="M176.6,341.4c0.5-1.7,1.9-3,3.5-3.5c1.8-1.5,4.6-2,6.9-0.2c9.7,7.9,19.2,16.1,28.4,24.5
		c4.4,4,8.7,8.1,12.9,12.3c2.3,2.2,4.6,4.4,6.4,6.8c2,1.4,3.7,3.3,4.8,5.5c0.9,2,0.9,4.5-0.8,6.1c-1.1,1-2.5,1.5-4,1.4
		c-3.6,4.5-7.8,7.6-13.2,9.8c-2.5,1-5.5-1.1-6.2-3.5c-0.9-3-2-5.8-3.5-8.5c-1.8,0.2-3.6-0.5-4.6-2.3c-4.2-7.8-8.7-14.6-14.7-21
		c-3.5-3.7-6.7-7.4-9.3-11.6c-0.6-0.7-1.2-1.5-1.8-2.2C178,350.9,175.1,346.9,176.6,341.4z"/>
	<path class="st0" d="M502.1,367.5c1.1-2.5,0.4-6.1-2.8-7.4c-6.2-2.5-12.3-5-18.5-7.5c-4.6-1.9-9.5-4.5-14.5-5.1
		c-0.4-0.2-0.8-0.3-1.2-0.3c-0.3-0.1-0.6-0.1-0.9-0.2c-0.2-0.1-0.3-0.2-0.5-0.3c-0.5-0.3-1.1-0.5-1.8-0.6c-3.4-1.4-6.9-2-10,0.9
		c-4.7,4.5-8.6,10.5-12.7,15.5c-1,1.3-1.3,2.7-1.1,4c-0.2,1.5,0.1,3.2,1.2,4.4c0.2,0.4,0.5,0.9,0.9,1.3c4.2,4.5,7.5,9.4,10.3,14.8
		c2,3.9,6.7,2.8,8.5-0.2c4.2,3.3,9.7,2.2,14.9,1.9c9-0.4,27.6,1.4,27.5-12c0-1.6-0.6-2.8-1.6-3.6
		C501.5,372.1,502.5,369.7,502.1,367.5z"/>
	<path class="st0" d="M11.6,367.5c-1.1-2.5-0.4-6.1,2.8-7.4c6.2-2.5,12.3-5,18.5-7.5c4.6-1.9,9.5-4.5,14.5-5.1
		c0.4-0.2,0.8-0.3,1.2-0.3c0.3-0.1,0.6-0.1,0.9-0.2c0.2-0.1,0.3-0.2,0.5-0.3c0.5-0.3,1.1-0.5,1.8-0.6c3.4-1.4,6.9-2,10,0.9
		c4.7,4.5,8.6,10.5,12.7,15.5c1,1.3,1.3,2.7,1.1,4c0.2,1.5-0.1,3.2-1.2,4.4c-0.2,0.4-0.5,0.9-0.9,1.3c-4.2,4.5-7.5,9.4-10.3,14.8
		c-2,3.9-6.7,2.8-8.5-0.2c-4.2,3.3-9.7,2.2-14.9,1.9c-9-0.4-27.6,1.4-27.5-12c0-1.6,0.6-2.8,1.6-3.6
		C12.2,372.1,11.2,369.7,11.6,367.5z"/>
</g>
<g id="Capa_1">
	<g>
		<path d="M160,220.1c0,27.8,10.1,56,27.8,77.3c18.6,22.4,42.8,34.8,68.3,34.8c25.5,0,49.7-12.3,68.2-34.7
			c17.6-21.3,27.7-49.5,27.7-77.3v-24.5c7.1-30.7,8.6-57.2,8.6-74.2c0-21.9-2.4-37-4.6-43.8c-1.2-3.6-4.7-5.8-8.4-5.5
			c-0.6-0.1-1.2,0-1.9,0c-14.9,2.1-33.1-1.5-52.5-5.4c-31.3-6.3-66.7-13.4-93.7,5.4c-0.2,0-0.5,0-0.7,0c-15.2,0-28.7,6.1-38,17.1
			c-8.6,10.2-13.3,24.2-13.3,39.4c0,25,10.6,71.1,12.4,78.5L160,220.1L160,220.1z M312,287.2c-15.4,18.7-35.3,28.9-55.9,28.9
			c-20.6,0-40.5-10.3-56-29c-15.3-18.5-24.1-42.9-24.1-67.1v-9.6c0-19.8,13.3-46.7,18.3-56.2c71.9-8.2,120.1,11.6,131,16.8
			l10.7,25.3v23.8C336.1,244.3,327.3,268.7,312,287.2z M198.9,88.1c0.6,0,1.1-0.1,1.7-0.2c2.2,0.5,4.6,0,6.5-1.4
			c21.6-16.4,52.9-10.1,83.1-4c16.2,3.3,31.7,6.4,46.1,6.4c2,0,4-0.1,5.9-0.2c2.4,13.5,4.4,42.7-1.1,78.8l-2.3-5.3
			c-0.7-1.7-1.9-3-3.5-3.9c-2.3-1.3-57.2-30.6-146.5-19.4c-2.6,0.1-5.1,1.5-6.5,4c-0.5,0.9-7.5,13-13.5,28.6
			c-2.7-14.8-5.2-31.5-5.2-42.8C163.6,100.6,181.3,88.1,198.9,88.1z"/>
		<path d="M393.9,349.9c-0.2,0-0.3-0.1-0.5-0.1l-47.6-10l-12.6-19.1c-0.1-0.1-0.2-0.3-0.3-0.4c-2.3-3-5.8-5.1-9.6-5.5
			c-3.8-0.5-7.6,0.7-10.6,3.1c-0.1,0-0.1,0.1-0.2,0.1L256,366.7L199.4,318c-0.1,0-0.1-0.1-0.2-0.1c-3-2.4-6.8-3.5-10.6-3.1
			c-3.8,0.5-7.3,2.5-9.6,5.5c-0.1,0.1-0.2,0.3-0.3,0.4l-12.6,19.1l-47.6,10c-0.2,0-0.3,0.1-0.5,0.1c-13.8,3.9-25.6,12.5-34.1,24.8
			c-7.7,11.3-11.9,24.9-11.9,38.3v15c0,13.2,11.8,23.9,26.2,23.9h139.5c0,0,0,0,0,0c0,0,0,0,0,0h36.3c0,0,0,0,0,0c0,0,0,0,0,0h139.5
			c14.4,0,26.2-10.7,26.2-23.9v-15c0-13.4-4.2-27-11.9-38.3C419.5,362.3,407.7,353.7,393.9,349.9z M321.2,331.6l9.9,15.1l-39.7,54.7
			l-23.7-23.7L321.2,331.6z M250.8,420h10.5l3.2,15.9h-16.9L250.8,420z M264,399.6c0,2.6-1.6,4.4-2.7,4.4h-10.7
			c-1.1,0-2.7-1.7-2.7-4.4v-3.1l8-8l8,8L264,399.6L264,399.6z M190.8,331.6l53.5,46l-23.7,23.7l-39.7-54.7L190.8,331.6z M88.1,428
			v-15c0-18.9,11.7-41.3,34.1-47.7l45.5-9.5l45.5,62.5c1.4,1.9,3.5,3.1,5.8,3.3c0.2,0,0.4,0,0.6,0c2.1,0,4.1-0.8,5.7-2.3l9.3-9.3
			c0.4,0.8,0.9,1.5,1.4,2.2l-4.8,23.8H98.3C92.8,436,88.1,432.3,88.1,428z M423.9,428c0,4.3-4.7,7.9-10.2,7.9H280.8l-4.8-23.8
			c0.5-0.7,1-1.5,1.4-2.2l9.3,9.3c1.5,1.5,3.5,2.3,5.7,2.3c0.2,0,0.4,0,0.6,0c2.3-0.2,4.5-1.4,5.8-3.3l45.5-62.5l45.5,9.5
			c22.4,6.4,34.1,28.8,34.1,47.7L423.9,428L423.9,428z"/>
		<path d="M64.2,235.1c0,19.4,6.6,37.7,18.6,51.4C95,300.3,111.3,308,128.6,308c13,0,25.6-4.3,36.3-12.6c3.5-2.7,4.2-7.7,1.5-11.2
			s-7.7-4.2-11.2-1.5c-7.9,6.1-17,9.3-26.5,9.3c-26.7,0-48.5-25.5-48.5-56.9v-4.7c0-12.6,5.2-29.4,8-37.3
			c17.3-1.5,32.7,0.7,45.3,2.6l1.4,0.2c0.4,0.1,0.8,0.1,1.2,0.1c3.9,0,7.3-2.9,7.9-6.8c0.6-4.4-2.4-8.4-6.7-9.1l-1.4-0.2
			c-14.7-2.2-33-4.9-54.4-2.1c0,0-0.1,0-0.1,0c0,0,0,0,0,0c0,0-0.1,0-0.1,0c-0.2,0-0.5,0.1-0.7,0.1c-0.1,0-0.2,0.1-0.4,0.1
			c-0.1,0-0.2,0.1-0.4,0.1c-0.2,0.1-0.3,0.1-0.5,0.2c-0.1,0-0.2,0.1-0.3,0.1c-0.2,0.1-0.3,0.1-0.5,0.2c-0.1,0-0.2,0.1-0.2,0.1
			c-0.1,0.1-0.3,0.2-0.4,0.2c-0.1,0.1-0.2,0.1-0.3,0.2c-0.1,0.1-0.2,0.2-0.3,0.2c-0.1,0.1-0.2,0.2-0.3,0.2c-0.1,0.1-0.2,0.1-0.2,0.2
			c-0.1,0.1-0.2,0.2-0.3,0.3c-0.1,0.1-0.1,0.1-0.2,0.2c-0.1,0.1-0.2,0.2-0.3,0.4c-0.1,0.1-0.1,0.2-0.2,0.2c-0.1,0.1-0.2,0.3-0.3,0.4
			c-0.1,0.1-0.1,0.2-0.2,0.3c-0.1,0.1-0.1,0.2-0.2,0.3c-0.1,0.2-0.2,0.4-0.3,0.7c0,0,0,0,0,0.1c0,0,0,0,0,0c0,0,0,0,0,0.1
			c-0.1,0.4-0.7,1.9-1.5,4.2c-0.6-5.1-1.1-9.9-1.1-13.7c0-17.3,8.3-25,16.6-25c0.4,0,0.8,0,1.1-0.1c0.4,0.1,0.8,0.1,1.1,0.1
			c1.7,0,3.4-0.5,4.8-1.6c7.5-5.7,17.1-7.6,31.2-6.2c4.4,0.4,8.3-2.8,8.7-7.2c0.4-4.4-2.8-8.3-7.2-8.7c-10.8-1.1-26.5-1.4-40.2,7.7
			c-19.1,0.2-32.4,17-32.4,41c0,16.8,6.6,47.6,7.9,53.3C64.2,226.6,64.2,235.1,64.2,235.1z"/>
		<path d="M56,380H20.4c-2.5,0-4.4-1.5-4.4-2.8v-10.2c0-11.9,7.3-25.9,21.2-30l29.1-6.1l15,21.7c1.6,2.2,4,3.4,6.6,3.4
			c1.6,0,3.2-0.5,4.6-1.4c3.6-2.5,4.5-7.5,2-11.1l-15-21.6l4.4-6.7l31.2,23.3c3.5,2.6,8.6,1.9,11.2-1.6c2.6-3.5,1.9-8.6-1.6-11.2
			L90.5,300c-2.5-2-5.8-2.9-9-2.5c-3.3,0.4-6.3,2.1-8.2,4.8c-0.1,0.1-0.2,0.3-0.3,0.4l-8,12.1l-31.4,6.6c-0.2,0-0.3,0.1-0.5,0.1
			C11.4,327.6,0,348.9,0,366.9v10.2C0,387.5,9.1,396,20.4,396H56c4.4,0,8-3.6,8-8S60.4,380,56,380z"/>
		<path d="M375.8,132c11.8,0.2,24.8,2.3,37.3,4.4c9.5,1.5,18.6,3,26.5,3.5c-0.3,18.9-1.5,36-2.9,49.7c0,0,0,0,0,0
			c-0.1-0.1-0.3-0.2-0.4-0.3c-0.1,0-0.1-0.1-0.2-0.1c-0.1,0-0.1-0.1-0.2-0.1c0,0,0,0,0,0c-16-9.6-35.4-15.2-59.3-17
			c-4.4-0.3-8.2,3-8.6,7.4c-0.3,4.4,3,8.2,7.4,8.6c20.4,1.5,36.9,6,50.4,13.7c1.9,4.5,6.1,15.8,6.1,28.8v4.7
			c0,31.4-21.7,56.9-48.5,56.9c-9.5,0-18.6-3.2-26.5-9.3c-3.5-2.7-8.5-2-11.2,1.5s-2,8.5,1.5,11.2c10.7,8.2,23.2,12.6,36.3,12.6
			c17.4,0,33.6-7.6,45.8-21.5c12-13.7,18.6-31.9,18.6-51.4v-8.6c1.1-6,7.7-43.2,7.9-92.4c0.2-0.8,0.3-1.6,0.2-2.5
			c-0.3-4.3-3.8-7.6-8-7.5c-0.1,0-0.1,0-0.2,0c-0.2,0-0.3,0-0.5,0c-7.7,0.4-19.3-1.5-31.6-3.4c-12.5-2-26.7-4.3-39.6-4.6
			c-4.4-0.1-8.1,3.4-8.2,7.8C367.9,128.2,371.4,131.9,375.8,132z"/>
		<path d="M478.8,321.5c-0.2,0-0.3-0.1-0.5-0.1l-31.4-6.6l-8-12.1c-0.1-0.1-0.2-0.3-0.3-0.4c-2-2.6-5-4.4-8.2-4.8
			c-3.2-0.4-6.4,0.5-9,2.5l-34.2,25.6c-3.5,2.6-4.3,7.7-1.6,11.2c2.6,3.5,7.7,4.3,11.2,1.6l31.2-23.3l4.4,6.7l-15,21.6
			c-2.5,3.6-1.6,8.6,2,11.1c1.4,1,3,1.4,4.5,1.4c2.5,0,5-1.2,6.6-3.4l15-21.7l29.1,6.1c14,4,21.2,18.1,21.2,30v10.2
			c0,1.3-1.9,2.8-4.4,2.8H456c-4.4,0-8,3.6-8,8s3.6,8,8,8h35.6c11.2,0,20.4-8.5,20.4-18.8v-10.2C512,348.9,500.6,327.6,478.8,321.5z
			"/>
	</g>
</g>
</svg>
