<?xml version="1.0" encoding="utf-8"?>
<!-- Generator: Adobe Illustrator 19.2.0, SVG Export Plug-In . SVG Version: 6.00 Build 0)  -->
<svg version="1.1" xmlns="http://www.w3.org/2000/svg" xmlns:xlink="http://www.w3.org/1999/xlink" x="0px" y="0px"
	 viewBox="0 0 502 502" style="enable-background:new 0 0 502 502;" xml:space="preserve">
<style type="text/css">
	.st0{fill:#4EB543;}
</style>
<g id="Слой_3">
	<rect x="124" y="111" class="st0" width="70.7" height="95.3"/>
	<rect x="274" y="108.3" class="st0" width="72" height="98"/>
	<path class="st0" d="M361.3,321.6c-9.6,6.6-15.5,17.6-14.1,29.4c0.5,4,3.1,7.5,7.5,7.5c3.7,0,8-3.5,7.5-7.5
		c-0.8-6.4,1.2-12.7,6.7-16.4C376.7,329.1,369.2,316.1,361.3,321.6z"/>
	<path class="st0" d="M141.1,321.6c-9.6,6.6-15.5,17.6-14.1,29.4c0.5,4,3.1,7.5,7.5,7.5c3.7,0,8-3.5,7.5-7.5
		c-0.8-6.4,1.2-12.7,6.7-16.4C156.6,329.1,149.1,316.1,141.1,321.6z"/>
</g>
<g id="Layer_1">
	<g>
		<g>
			<g>
				<path d="M473.4,453.3h-54.6l-39.5-39.5h39c5.5,0,10-4.5,10-10V101.4c0-23.9-19.4-43.3-43.3-43.3H117
					c-23.9,0-43.3,19.4-43.3,43.3v302.4c0,5.5,4.5,10,10,10h39l-39.4,39.5l-55.2,0c-4.1,0-7.4,3.3-7.5,7.4c0,2.1,0,3.6,0,5.6
					c0,0.8,0.1,1.6,0.5,2.3c0.6,1.3,1.5,2.2,2.7,3c1.7,1.2,3.8,1.7,5.8,1.7c32.1,0,386,0,443.6,0c4.4,0,7.9-3.5,8-7.9
					c0-1.3,0.1-2.7,0.1-4C481.4,456.9,477.8,453.3,473.4,453.3z M93.7,393.8V101.4c0-12.9,10.4-23.3,23.3-23.3h268
					c12.9,0,23.3,10.4,23.3,23.3v292.4H93.7z M356.9,419.7H145.1l5.9-5.9h200.1L356.9,419.7z M111.7,453.1l13.5-13.5h251.7
					l13.5,13.5H111.7z"/>
				<path d="M119.9,248.1h112.2c5.5,0,10-4.5,10-10V104.8c0-5.5-4.5-10-10-10H119.9c-5.5,0-10,4.5-10,10v133.2
					C109.9,243.6,114.4,248.1,119.9,248.1z M129.9,114.8h92.2v113.2h-92.2V114.8z"/>
				<path d="M382.1,94.8H269.9c-5.5,0-10,4.5-10,10v133.2c0,5.5,4.5,10,10,10h112.2c5.5,0,10-4.5,10-10V104.8
					C392.1,99.3,387.6,94.8,382.1,94.8z M279.9,228.1V114.8h92.2v113.2H279.9z"/>
				<path d="M144.8,308.9c-20-2.1-36.9,14.7-34.7,34.7c1.5,14.6,13.3,26.4,27.9,27.9c20,2.1,36.9-14.7,34.7-34.7
					C171.2,322.1,159.4,310.4,144.8,308.9z M143.3,351.5c-7.9,1.3-14.6-5.4-13.3-13.3c0.8-4.8,4.6-8.6,9.4-9.4
					c7.9-1.3,14.6,5.4,13.3,13.3C151.9,346.9,148.1,350.7,143.3,351.5z"/>
				<path d="M364,308.9c-20-2.1-36.9,14.7-34.7,34.7c1.5,14.6,13.3,26.4,27.9,27.9c20,2.1,36.9-14.7,34.7-34.7
					C390.4,322.1,378.6,310.4,364,308.9z M362.6,351.5c-7.9,1.3-14.6-5.4-13.3-13.3c0.8-4.8,4.6-8.6,9.4-9.4
					c7.9-1.3,14.6,5.4,13.3,13.3C371.2,346.9,367.3,350.7,362.6,351.5z"/>
				<path d="M336.3,272.3c-0.7-5-5.2-8.5-10.2-8.5H121.5c-5,0-9.5,3.6-10.2,8.5c-0.9,6.2,3.9,11.5,9.9,11.5h205.2
					C332.4,283.8,337.2,278.5,336.3,272.3z"/>
				<path class="st0" d="M379.9,283.8c6,0,10.8-5.3,9.9-11.5c-0.7-5-5.2-8.5-10.2-8.5h-20.4c-5,0-9.5,3.6-10.2,8.5
					c-0.9,6.2,3.9,11.5,9.9,11.5H379.9z"/>
				<path d="M203.3,122.6h-54.1c-5,0-9.5,3.6-10.2,8.5c-0.9,6.2,3.9,11.5,9.9,11.5H203c5,0,9.5-3.6,10.2-8.5
					C214.1,127.9,209.3,122.6,203.3,122.6z"/>
				<path d="M353.1,122.6H299c-5,0-9.5,3.6-10.2,8.5c-0.9,6.2,3.9,11.5,9.9,11.5h54.1c5,0,9.5-3.6,10.2-8.5
					C363.9,127.9,359.1,122.6,353.1,122.6z"/>
			</g>
		</g>
	</g>
</g>
</svg>
