<?xml version="1.0" encoding="utf-8"?>
<!-- Generator: Adobe Illustrator 19.2.0, SVG Export Plug-In . SVG Version: 6.00 Build 0)  -->
<svg version="1.1" xmlns="http://www.w3.org/2000/svg" xmlns:xlink="http://www.w3.org/1999/xlink" x="0px" y="0px"
	 viewBox="0 0 503.6 503.6" style="enable-background:new 0 0 503.6 503.6;" xml:space="preserve">
<style type="text/css">
	.st0{fill:#4EB543;}
</style>
<g id="Слой_3">
	<rect x="285.4" y="51.1" class="st0" width="209.8" height="238.4"/>
</g>
<g id="Layer_1">
	<g>
		<g>
			<path d="M461.6,259.9c-4.2,0-8.4,4.2-8.4,8.4c0,5,3.4,8.4,8.4,8.4s8.4-3.4,8.4-8.4S466.7,259.9,461.6,259.9z"/>
		</g>
	</g>
	<g>
		<g>
			<path d="M486.8,234.8c-4.2,0-8.4,4.2-8.4,8.4c0,5,3.4,8.4,8.4,8.4s8.4-3.4,8.4-8.4S491.9,234.8,486.8,234.8z"/>
		</g>
	</g>
	<g>
		<g>
			<path d="M436.5,234.8c-4.2,0-8.4,4.2-8.4,8.4c0,5,3.4,8.4,8.4,8.4s8.4-3.4,8.4-8.4S441.5,234.8,436.5,234.8z"/>
		</g>
	</g>
	<g>
		<g>
			<path d="M411.3,259.9c-4.2,0-8.4,4.2-8.4,8.4c0,5,3.4,8.4,8.4,8.4s8.4-3.4,8.4-8.4S416.3,259.9,411.3,259.9z"/>
		</g>
	</g>
	<g>
		<g>
			<path d="M360.9,259.9c-4.2,0-8.4,4.2-8.4,8.4c0,5,3.4,8.4,8.4,8.4s8.4-3.4,8.4-8.4S366,259.9,360.9,259.9z"/>
		</g>
	</g>
	<g>
		<g>
			<path d="M386.1,234.8c-4.2,0-8.4,4.2-8.4,8.4c0,5,3.4,8.4,8.4,8.4s8.4-3.4,8.4-8.4S391.1,234.8,386.1,234.8z"/>
		</g>
	</g>
	<g>
		<g>
			<path d="M335.7,234.8c-4.2,0-8.4,4.2-8.4,8.4c0,5,3.4,8.4,8.4,8.4s8.4-3.4,8.4-8.4S340.8,234.8,335.7,234.8z"/>
		</g>
	</g>
	<g>
		<g>
			<path d="M310.6,259.9c-4.2,0-8.4,4.2-8.4,8.4c0,5,3.4,8.4,8.4,8.4s8.4-3.4,8.4-8.4S315.6,259.9,310.6,259.9z"/>
		</g>
	</g>
	<g>
		<g>
			<path d="M260.2,259.9c-4.2,0-8.4,4.2-8.4,8.4c0,5,3.4,8.4,8.4,8.4s8.4-3.4,8.4-8.4S265.2,259.9,260.2,259.9z"/>
		</g>
	</g>
	<g>
		<g>
			<path d="M285.4,234.8c-4.2,0-8.4,4.2-8.4,8.4c0,5,3.4,8.4,8.4,8.4s8.4-3.4,8.4-8.4S290.4,234.8,285.4,234.8z"/>
		</g>
	</g>
	<g>
		<g>
			<path d="M461.6,209.6c-4.2,0-8.4,4.2-8.4,8.4c0,5,3.4,8.4,8.4,8.4s8.4-3.4,8.4-8.4C470,212.9,466.7,209.6,461.6,209.6z"/>
		</g>
	</g>
	<g>
		<g>
			<path d="M461.6,159.2c-4.2,0-8.4,4.2-8.4,8.4c0,5,3.4,8.4,8.4,8.4s8.4-3.4,8.4-8.4S466.7,159.2,461.6,159.2z"/>
		</g>
	</g>
	<g>
		<g>
			<path d="M486.8,184.4c-4.2,0-8.4,4.2-8.4,8.4c0,5,3.4,8.4,8.4,8.4s8.4-3.4,8.4-8.4S491.9,184.4,486.8,184.4z"/>
		</g>
	</g>
	<g>
		<g>
			<path d="M436.5,184.4c-4.2,0-8.4,4.2-8.4,8.4c0,5,3.4,8.4,8.4,8.4s8.4-3.4,8.4-8.4S441.5,184.4,436.5,184.4z"/>
		</g>
	</g>
	<g>
		<g>
			<path d="M411.3,209.6c-4.2,0-8.4,4.2-8.4,8.4c0,5,3.4,8.4,8.4,8.4s8.4-3.4,8.4-8.4S416.3,209.6,411.3,209.6z"/>
		</g>
	</g>
	<g>
		<g>
			<path d="M360.9,209.6c-4.2,0-8.4,4.2-8.4,8.4c0,5,3.4,8.4,8.4,8.4s8.4-3.4,8.4-8.4S366,209.6,360.9,209.6z"/>
		</g>
	</g>
	<g>
		<g>
			<path d="M411.3,159.2c-4.2,0-8.4,4.2-8.4,8.4c0,5,3.4,8.4,8.4,8.4s8.4-3.4,8.4-8.4S416.3,159.2,411.3,159.2z"/>
		</g>
	</g>
	<g>
		<g>
			<path d="M360.9,159.2c-4.2,0-8.4,4.2-8.4,8.4c0,5,3.4,8.4,8.4,8.4s8.4-3.4,8.4-8.4S366,159.2,360.9,159.2z"/>
		</g>
	</g>
	<g>
		<g>
			<path d="M386.1,184.4c-4.2,0-8.4,4.2-8.4,8.4c0,5,3.4,8.4,8.4,8.4s8.4-3.4,8.4-8.4S391.1,184.4,386.1,184.4z"/>
		</g>
	</g>
	<g>
		<g>
			<path d="M335.7,184.4c-4.2,0-8.4,4.2-8.4,8.4c0,5,3.4,8.4,8.4,8.4s8.4-3.4,8.4-8.4S340.8,184.4,335.7,184.4z"/>
		</g>
	</g>
	<g>
		<g>
			<path d="M310.6,209.6c-4.2,0-8.4,4.2-8.4,8.4c0,5,3.4,8.4,8.4,8.4s8.4-3.4,8.4-8.4C319,212.9,315.6,209.6,310.6,209.6z"/>
		</g>
	</g>
	<g>
		<g>
			<path d="M260.2,209.6c-4.2,0-8.4,4.2-8.4,8.4c0,5,3.4,8.4,8.4,8.4s8.4-3.4,8.4-8.4C268.6,212.9,265.2,209.6,260.2,209.6z"/>
		</g>
	</g>
	<g>
		<g>
			<path d="M310.6,159.2c-4.2,0-8.4,4.2-8.4,8.4c0,5,3.4,8.4,8.4,8.4s8.4-3.4,8.4-8.4S315.6,159.2,310.6,159.2z"/>
		</g>
	</g>
	<g>
		<g>
			<path d="M260.2,159.2c-4.2,0-8.4,4.2-8.4,8.4c0,5,3.4,8.4,8.4,8.4s8.4-3.4,8.4-8.4S265.2,159.2,260.2,159.2z"/>
		</g>
	</g>
	<g>
		<g>
			<path d="M285.4,184.4c-4.2,0-8.4,4.2-8.4,8.4c0,5,3.4,8.4,8.4,8.4s8.4-3.4,8.4-8.4S290.4,184.4,285.4,184.4z"/>
		</g>
	</g>
	<g>
		<g>
			<path d="M461.6,108.9c-4.2,0-8.4,4.2-8.4,8.4c0,5,3.4,8.4,8.4,8.4s8.4-3.4,8.4-8.4S466.7,108.9,461.6,108.9z"/>
		</g>
	</g>
	<g>
		<g>
			<path d="M486.8,134c-4.2,0-8.4,4.2-8.4,8.4c0,5,3.4,8.4,8.4,8.4s8.4-3.4,8.4-8.4S491.9,134,486.8,134z"/>
		</g>
	</g>
	<g>
		<g>
			<path d="M436.5,134c-4.2,0-8.4,4.2-8.4,8.4c0,5,3.4,8.4,8.4,8.4s8.4-3.4,8.4-8.4S441.5,134,436.5,134z"/>
		</g>
	</g>
	<g>
		<g>
			<path d="M486.8,83.7c-4.2,0-8.4,4.2-8.4,8.4c0,5,3.4,8.4,8.4,8.4s8.4-3.4,8.4-8.4S491.9,83.7,486.8,83.7z"/>
		</g>
	</g>
	<g>
		<g>
			<path d="M436.5,83.7c-4.2,0-8.4,4.2-8.4,8.4c0,5,3.4,8.4,8.4,8.4s8.4-3.4,8.4-8.4S441.5,83.7,436.5,83.7z"/>
		</g>
	</g>
	<g>
		<g>
			<path d="M411.3,108.9c-4.2,0-8.4,4.2-8.4,8.4c0,5,3.4,8.4,8.4,8.4s8.4-3.4,8.4-8.4S416.3,108.9,411.3,108.9z"/>
		</g>
	</g>
	<g>
		<g>
			<path d="M360.9,108.9c-4.2,0-8.4,4.2-8.4,8.4c0,5,3.4,8.4,8.4,8.4s8.4-3.4,8.4-8.4S366,108.9,360.9,108.9z"/>
		</g>
	</g>
	<g>
		<g>
			<path d="M386.1,134c-4.2,0-8.4,4.2-8.4,8.4c0,5,3.4,8.4,8.4,8.4s8.4-3.4,8.4-8.4S391.1,134,386.1,134z"/>
		</g>
	</g>
	<g>
		<g>
			<path d="M335.7,134c-4.2,0-8.4,4.2-8.4,8.4c0,5,3.4,8.4,8.4,8.4s8.4-3.4,8.4-8.4S340.8,134,335.7,134z"/>
		</g>
	</g>
	<g>
		<g>
			<path d="M386.1,83.7c-4.2,0-8.4,4.2-8.4,8.4c0,5,3.4,8.4,8.4,8.4s8.4-3.4,8.4-8.4S391.1,83.7,386.1,83.7z"/>
		</g>
	</g>
	<g>
		<g>
			<path d="M335.7,83.7c-4.2,0-8.4,4.2-8.4,8.4c0,5,3.4,8.4,8.4,8.4s8.4-3.4,8.4-8.4S340.8,83.7,335.7,83.7z"/>
		</g>
	</g>
	<g>
		<g>
			<path d="M310.6,108.9c-4.2,0-8.4,4.2-8.4,8.4c0,5,3.4,8.4,8.4,8.4s8.4-3.4,8.4-8.4S315.6,108.9,310.6,108.9z"/>
		</g>
	</g>
	<g>
		<g>
			<path d="M260.2,108.9c-4.2,0-8.4,4.2-8.4,8.4c0,5,3.4,8.4,8.4,8.4s8.4-3.4,8.4-8.4S265.2,108.9,260.2,108.9z"/>
		</g>
	</g>
	<g>
		<g>
			<path d="M285.4,134c-4.2,0-8.4,4.2-8.4,8.4c0,5,3.4,8.4,8.4,8.4s8.4-3.4,8.4-8.4S290.4,134,285.4,134z"/>
		</g>
	</g>
	<g>
		<g>
			<path d="M285.4,83.7c-4.2,0-8.4,4.2-8.4,8.4c0,5,3.4,8.4,8.4,8.4s8.4-3.4,8.4-8.4S290.4,83.7,285.4,83.7z"/>
		</g>
	</g>
	<g>
		<g>
			<path d="M461.6,58.5c-4.2,0-8.4,4.2-8.4,8.4c0,5,3.4,8.4,8.4,8.4s8.4-3.4,8.4-8.4S466.7,58.5,461.6,58.5z"/>
		</g>
	</g>
	<g>
		<g>
			<path d="M461.6,8.1c-4.2,0-8.4,4.2-8.4,8.4c0,5,3.4,8.4,8.4,8.4s8.4-3.4,8.4-8.4C470,11.5,466.7,8.1,461.6,8.1z"/>
		</g>
	</g>
	<g>
		<g>
			<path d="M486.8,33.3c-4.2,0-8.4,4.2-8.4,8.4c0,5,3.4,8.4,8.4,8.4s8.4-3.4,8.4-8.4S491.9,33.3,486.8,33.3z"/>
		</g>
	</g>
	<g>
		<g>
			<path d="M436.5,33.3c-4.2,0-8.4,4.2-8.4,8.4c0,5,3.4,8.4,8.4,8.4s8.4-3.4,8.4-8.4S441.5,33.3,436.5,33.3z"/>
		</g>
	</g>
	<g>
		<g>
			<path d="M411.3,58.5c-4.2,0-8.4,4.2-8.4,8.4c0,5,3.4,8.4,8.4,8.4s8.4-3.4,8.4-8.4S416.3,58.5,411.3,58.5z"/>
		</g>
	</g>
	<g>
		<g>
			<path d="M360.9,58.5c-4.2,0-8.4,4.2-8.4,8.4c0,5,3.4,8.4,8.4,8.4s8.4-3.4,8.4-8.4S366,58.5,360.9,58.5z"/>
		</g>
	</g>
	<g>
		<g>
			<path d="M411.3,8.1c-4.2,0-8.4,4.2-8.4,8.4c0,5,3.4,8.4,8.4,8.4s8.4-3.4,8.4-8.4S416.3,8.1,411.3,8.1z"/>
		</g>
	</g>
	<g>
		<g>
			<path d="M360.9,8.1c-4.2,0-8.4,4.2-8.4,8.4c0,5,3.4,8.4,8.4,8.4s8.4-3.4,8.4-8.4S366,8.1,360.9,8.1z"/>
		</g>
	</g>
	<g>
		<g>
			<path d="M386.1,33.3c-4.2,0-8.4,4.2-8.4,8.4c0,5,3.4,8.4,8.4,8.4s8.4-3.4,8.4-8.4S391.1,33.3,386.1,33.3z"/>
		</g>
	</g>
	<g>
		<g>
			<path d="M335.7,33.3c-4.2,0-8.4,4.2-8.4,8.4c0,5,3.4,8.4,8.4,8.4s8.4-3.4,8.4-8.4S340.8,33.3,335.7,33.3z"/>
		</g>
	</g>
	<g>
		<g>
			<path d="M310.6,58.5c-4.2,0-8.4,4.2-8.4,8.4c0,5,3.4,8.4,8.4,8.4s8.4-3.4,8.4-8.4S315.6,58.5,310.6,58.5z"/>
		</g>
	</g>
	<g>
		<g>
			<path d="M260.2,58.5c-4.2,0-8.4,4.2-8.4,8.4c0,5,3.4,8.4,8.4,8.4s8.4-3.4,8.4-8.4S265.2,58.5,260.2,58.5z"/>
		</g>
	</g>
	<g>
		<g>
			<path d="M310.6,8.1c-4.2,0-8.4,4.2-8.4,8.4c0,5,3.4,8.4,8.4,8.4s8.4-3.4,8.4-8.4C319,11.5,315.6,8.1,310.6,8.1z"/>
		</g>
	</g>
	<g>
		<g>
			<path d="M260.2,8.1c-4.2,0-8.4,4.2-8.4,8.4c0,5,3.4,8.4,8.4,8.4s8.4-3.4,8.4-8.4C268.6,11.5,265.2,8.1,260.2,8.1z"/>
		</g>
	</g>
	<g>
		<g>
			<path d="M285.4,33.3c-4.2,0-8.4,4.2-8.4,8.4c0,5,3.4,8.4,8.4,8.4s8.4-3.4,8.4-8.4S290.4,33.3,285.4,33.3z"/>
		</g>
	</g>
	<g transform="translate(1)">
		<g>
			<path d="M502.6,8.4c0-5-3.4-8.4-8.4-8.4H250.8l0,0H7.4C2.4,0-1,3.4-1,8.4v486.8c0,5,3.4,8.4,8.4,8.4h243.4c5,0,8.4-3.4,8.4-8.4
				V394.5h201.4c23.5,0,42-26,42-58.8c0,0,0,0,0,0l0,0L502.6,8.4L502.6,8.4z M259.2,16.8h226.6v271.7c-2.3-2.4-4.8-4.4-7.4-6.1
				c-0.4-0.2-0.8-0.5-1.2-0.7c-0.2-0.1-0.5-0.3-0.7-0.4c-0.3-0.2-0.7-0.4-1-0.5c-0.3-0.2-0.6-0.3-0.9-0.5c-0.2-0.1-0.5-0.2-0.7-0.4
				c-0.4-0.2-0.8-0.3-1.1-0.5c-0.2-0.1-0.3-0.1-0.5-0.2c-2-0.8-4-1.3-6.1-1.7c-0.2,0-0.4-0.1-0.6-0.1c-0.4-0.1-0.7-0.1-1.1-0.2
				c-0.3,0-0.7-0.1-1-0.1c-0.3,0-0.6-0.1-0.9-0.1c-0.6,0-1.3-0.1-1.9-0.1h0H259.2V16.8z M217.2,377.7c-8,0-15.4-6.8-20-17.1
				c-3.2-7-5.1-15.7-5.1-24.9c0-5,0.6-9.8,1.6-14.2c3.6-16,13.1-27.7,23.6-27.7h33.6c0,0,0,0,0,0h180.3c-7.7,10.6-12.4,25.4-12.4,42
				c0,16.5,4.7,31.3,12.4,42L217.2,377.7L217.2,377.7z M242.4,486.8H15.8v-470h226.6V277h-25.2h0c-23.5,0-42,26-42,58.8
				s18.5,58.8,42,58.8h0h25.2L242.4,486.8L242.4,486.8z M460.6,377.7c-8,0-15.4-6.8-20-17.1c-3.2-7-5.1-15.7-5.1-24.9
				c0-5,0.6-9.8,1.6-14.2c3.6-16,13.1-27.7,23.6-27.7h0c9.1,0,17.4,8.8,21.8,21.6c2.1,6.1,3.3,13.1,3.3,20.4
				C485.8,358.4,474.1,377.7,460.6,377.7z"/>
		</g>
	</g>
</g>
</svg>
